/* XPM */
static char *vecteezy_star_shape_bubble_explosion_sprite_sheet_16962014_removebg_ezgif_com_crop_resized[] = {
/* columns rows colors chars-per-pixel */
"64 64 230 2 ",
"   c None",
".  c #7C2F20",
"X  c #7E2F14",
"o  c #9A3C0A",
"O  c #8B3A11",
"+  c #853518",
"@  c #9B3B1C",
"#  c #943A16",
"$  c #853113",
"%  c #AA3E13",
"&  c #943925",
"*  c #9E480C",
"=  c #9C4316",
"-  c #9D5517",
";  c #A4420A",
":  c #A9490B",
">  c #B44D0D",
",  c #AD5808",
"<  c #BC5B0B",
"1  c #B75609",
"2  c #A84716",
"3  c #B64D14",
"4  c #B54A16",
"5  c #AA5618",
"6  c #B95816",
"7  c #BB660A",
"8  c #B96619",
"9  c #AD6216",
"0  c #9B4B23",
"q  c #A74D21",
"w  c #A75324",
"e  c #BA6B22",
"r  c #C45B0C",
"t  c #C65B0C",
"y  c #C45B14",
"u  c #C65915",
"i  c #C5630C",
"p  c #CB630C",
"a  c #CD6B0C",
"s  c #C26D0D",
"d  c #D36D0D",
"f  c #D1660F",
"g  c #CC730C",
"h  c #CE7B0D",
"j  c #C8740B",
"k  c #D4730D",
"l  c #DB750C",
"z  c #DC7C0C",
"x  c #D77B06",
"c  c #CB6314",
"v  c #C56714",
"b  c #D26B14",
"n  c #D36A17",
"m  c #C67414",
"M  c #CE7412",
"N  c #CC7E16",
"B  c #D67115",
"V  c #D97513",
"C  c #DC7C13",
"Z  c #D87717",
"A  c #E17D0E",
"S  c #E27F04",
"D  c #E27E12",
"F  c #C87D22",
"G  c #D5830A",
"H  c #DD830C",
"J  c #DC8809",
"K  c #DD980D",
"L  c #DA8616",
"P  c #E18305",
"I  c #E38C06",
"U  c #E3840D",
"Y  c #E58B0D",
"T  c #E98D0E",
"R  c #E98D04",
"E  c #E5950C",
"W  c #EC940D",
"Q  c #E59B0C",
"!  c #ED9A0D",
"~  c #E49605",
"^  c #F19C0E",
"/  c #F0970D",
"(  c #E48413",
")  c #E68A12",
"_  c #EA8D12",
"`  c #E68813",
"'  c #EC9412",
"]  c #EE9B12",
"[  c #E79816",
"{  c #F19D12",
"}  c #F19B1B",
"|  c #EBA20E",
" . c #E9A509",
".. c #F4A40D",
"X. c #F6AB0D",
"o. c #F8AD0C",
"O. c #EEB30D",
"+. c #F5B106",
"@. c #F6B20D",
"#. c #F8B40C",
"$. c #F9BB0D",
"%. c #F5B90F",
"&. c #EBA413",
"*. c #ECAB15",
"=. c #EEA41A",
"-. c #EDAC1A",
";. c #E7A113",
":. c #F3A311",
">. c #F5AB11",
",. c #F2A31B",
"<. c #F4AC1C",
"1. c #F8AF10",
"2. c #EFB317",
"3. c #F4B414",
"4. c #F4BC12",
"5. c #FABD12",
"6. c #F1B31D",
"7. c #F8B718",
"8. c #D4902E",
"9. c #F39F21",
"0. c #DCA135",
"q. c #ECA929",
"w. c #F4A423",
"e. c #F4AD25",
"r. c #F5AD2B",
"t. c #F3B423",
"y. c #F3BA23",
"u. c #F9BB25",
"i. c #F5B429",
"p. c #F5BA2B",
"a. c #F8B729",
"s. c #F9BC33",
"d. c #F9BE3B",
"f. c #F7B732",
"g. c #E2A638",
"h. c #FDC209",
"j. c #FBC215",
"k. c #FBC41B",
"l. c #FCC91D",
"z. c #F5C414",
"x. c #FCD11E",
"c. c #FBC323",
"v. c #FCCC23",
"b. c #FAC32B",
"n. c #FCCC2B",
"m. c #F5C22C",
"M. c #FDD126",
"N. c #FDD32D",
"B. c #FED820",
"V. c #F7C332",
"C. c #FAC334",
"Z. c #FBCC34",
"A. c #FAC43C",
"S. c #FBCB3C",
"D. c #F7C737",
"F. c #FDD534",
"G. c #FED935",
"H. c #FDD23B",
"J. c #FEDB3C",
"K. c #CD9E42",
"L. c #D4AD51",
"P. c #E5BB55",
"I. c #F0BB49",
"U. c #FBCB43",
"Y. c #FDCD4B",
"T. c #FBC643",
"R. c #FCD444",
"E. c #FEDD42",
"W. c #FDD34C",
"Q. c #FDDC4B",
"!. c #FDD553",
"~. c #FEDB54",
"^. c #FEDD5B",
"/. c #FCD75D",
"(. c #EEC65B",
"). c #FEE146",
"_. c #FEE34C",
"`. c #FEE553",
"'. c #FEE45A",
"]. c #FEEA5C",
"[. c #FEE855",
"{. c #D9C275",
"}. c #E5C66C",
"|. c #FDDC63",
" X c #FAD86B",
".X c #F6DA77",
"XX c #EDCE73",
"oX c #FEE364",
"OX c #FEEC63",
"+X c #FEE46B",
"@X c #FEEC6C",
"#X c #FEF16C",
"$X c #FDF067",
"%X c #FEE573",
"&X c #FFEC74",
"*X c #FEEC7C",
"=X c #FCE379",
"-X c #FEF274",
";X c #FFF37C",
":X c #CFBB80",
">X c #F7DD82",
",X c #FEEC83",
"<X c #FDEB8B",
"1X c #FAE587",
"2X c #FFF483",
"3X c #FFF48B",
"4X c #FEF88C",
"5X c #FDEC93",
"6X c #FBE997",
"7X c #FEF493",
"8X c #FEF994",
"9X c #FEF49B",
"0X c #FFF99C",
"qX c #FCEDA2",
"wX c #FCEFA8",
"eX c #FEF4A4",
"rX c #FFF9A4",
"tX c #FEF5AD",
"yX c #FFF9AC",
"uX c #FEF4B5",
"iX c #FFF9B4",
"pX c #FEF6BB",
"aX c #FEF9BB",
"sX c #FEF6C3",
"dX c #FEFAC3",
"fX c #FEFBCC",
"gX c #FFF6C8",
"hX c #FFFBD4",
"jX c #FDFCDB",
"kX c #FEFEE6",
/* pixels */
"                                                                                                                                ",
"                                                            N L C m                                                             ",
"                                                          8.T W R P M                                                           ",
"                                                        L } :.{ ] R H m                                                         ",
"                                                      8.q.d.s.i.<.] R H 8                                                       ",
"                                                      g. X.XY.C.i.<.E R x 9                                                     ",
"                                                    0. XuX6X|.S.s.i.,.E I a                                                     ",
"                                                  K.(.pXhX6X XY.S.s.r.&.~ z 9                                                   ",
"                                                  P.qXkXhX5X|.!.Y.A.s.q.] R m 0                                                 ",
"                                                L..XjXkXsX<X+X^.W.R.D.p.-.Q J 1                                                 ",
"                                              K.(.pXkXkXtX*X%X|.^.W.U.D.i.;.Q j -                                               ",
"                                              (.6XjXkXsX7X*X=X+XoX^.W.T.f.6.;.J 7                                               ",
"                                            L.XXsXkXfXtX7X,X*X=X+X|.~.W.D.i.-.Q j 5                                             ",
"                                            XX6XjXhXpXeX7X<X,X*X=X+X^.!.U.V.t.*.K 7                                             ",
"                                          }..XuXfXsXtX9X5X5X<X,X*X%XoX^.W.A.p.q.;.G 9                                           ",
"                                        {..X<XpXsXiXtXeXeX9X3X3X,X&X+XoX~.R.A.p.*.K G 5                                         ",
"                                      :X>X1X6XpXaXaXiXtXeX9X7X3X<X*X%X+X^.Q.U.D.t.*.K m -                                       ",
"                                    {.>X1XwXpXsXdXaXiXiXyXeX9X7X3X2X&X@XoX^.W.U.V.y.*.;.G 5 5                                   ",
"                            L.{.XX.X>X6XeXpXfXgXfXdXaXiXyXeX9X7X3X2X*X&X+X'.~.W.S.V.6.4.2.K G s 9 5 5                           ",
"                    K.L.P. X>X6XqXqXwXuXpXfXhXfXdXdXaXiXiXrX0X9X7X2X*X*X@XoX^.~.W.A.V.c.z.x.z.%.Q J g i 6 5                     ",
"              8.g.I.(.>XqXpXsXpXpXuXuXpXfXhXhXhXfXdXaXiXyXrX0X9X7X3X,X*X%X@XoX^.~.W.S.C.b.v.B.B.B.j.3.:.Y z a i 8 w             ",
"        F L g.T. X<XuXgXfXfXgXpXtXtXpXdXfXhXhXfXdXdXaXiXyXrX0X8X3X3X2X;X-X%X+XoX/.~.W.S.Z.b.b.c.v.l.c.7.3.&.W U l b v 6         ",
"    8 L [ e.T..X6XqXuXuXwXeXqX9X9XtXaXaXfXfXfXfXdXaXiXyXyXrX0X8X4X3X2X2X*X&X%X+X^.^.W.Y.T.A.s.s.a.a.i.<.<.<.,.' T A k b c w     ",
"    C T =.f.Y.|.%X1X1X<X<X<X6X9XeXtXiXaXdXdXdXaXaXiXiXyXrX9X8X8X3X3X2X*X;X-X%X+XoX^.^.!.Y.T.A.d.s.f.r.r.w.,.} } _ ` z B f < w   ",
"  m P T ,.i.T.Y./.|.+X=X*X<X6X9XeXtXiXaXaXaXaXaXiXyXyXrX0X8X8X8X4X3X2X;X;X&X&X@X+XoX^./.W.Y.T.A.d.f.r.r.w.9.} ' _ ` A l f t 3   ",
"  m P T =.e.s.T.Y./.|.%X=X,X5X5XeXtXiXiXaXiXiXiXyXyXrX0X0X8X4X4X4X2X2X;X;X&X&X@XoXoX^.~.!.Y.T.T.d.f.f.r.w.9.} } _ A A B p t 3   ",
"  s x Y } e.i.A.Y././. X%X,X<X7X9XrXeXyXyXiXyXyXrXrX0X0X8X4X4X4X2X2X;X;X;X&X%X@XoXoX^.!.!.Y.U.T.d.f.f.r.w.9.} _ _ A A d c r 5   ",
"  5 k P E =.i.V.T.W.~.+X%X*X,X<X9X9XrXeXrXrXrXrX0X0X8X8X4X4X2X2X;X2X;X;X-X&X@X@XoX'.^.~.W.Y.U.A.d.f.f.r.w.9.} _ ( A l f t 1 q   ",
"    v x I ] e.p.S.R.~.'.+X%X,X3X3X7X0X0X0XrX0X0X8X8X4X4X2X2X;X;X;X;X;X-X&X@X@X@XoX'.^.~.W.R.S.A.d.a.i.w.,.} / _ A z B a r 3     ",
"      k H E *.t.V.U.W.'.oX%X&X,X3X7X7X7X8X8X8X4X4X4X4X2X;X;X-X-X;X-X-X#X#X@XOXoX'.'.~.W.W.S.A.C.s.a.e.<.} ] _ ` z k d t 1 =     ",
"      8 x I Q <.y.D.R.Q.'.oX@X&X*X2X3X3X7X4X4X4X2X2X;X;X;X-X-X-X-X#X#X#XOXOX].'.'.Q.Q.R.H.S.C.b.a.t.<.,.{ ' T z z k a < 2       ",
"        7 x E Q -.p.S.R.~.[.OX@X&X;X2X2X2X3X2X2X;X;X-X-X-X#X-X#X#X#X@XOXOX'.'.'.Q.Q.R.H.Z.C.s.a.7.<.>.{ ' T U z x d i :         ",
"          g H ~ ;.6.m.H.R.~.'.OX@X&X;X;X;X;X;X-X-X#X#X#X#X$X#XOX$XOXOX].].[.`.Q.Q.R.S.Z.b.b.u.u.<.>.{ ^ T U A z k a > +         ",
"          9 h R ;.*.y.V.H.Q._.'.OX@X&X-X-X-X-X#X#X#X$X$XOXOXOXOX].].].[.[._._.E.E.H.Z.n.b.u.7.<.>.{ / / U U z C a , #           ",
"            8 G K ;.-.y.D.H.Q.`.[.].$X#X#X#X$X$X$X$XOXOX].].'.[.[.[.`._._.Q.E.J.G.Z.n.b.u.7.7.>.:.^ / T H z z g 1 #             ",
"              m G K *.6.m.D.R.Q.`.'.].].].$X].].].[.].[.[.[.`.`.`._._.).).J.J.F.n.n.c.c.7.7.>.:.^ / T ( H H z 7 o               ",
"                j J ~ &.y.m.H.E.Q.`.'.'.[.[.].[.[.[._.[._._._._.).).E.J.G.G.N.N.v.c.k.5.3.1.....^ W T U H G 7 *                 ",
"                  h ~  .2.y.V.H.E.Q._._.[.[.[.[.[._._.).).Q.E.E.J.J.G.G.N.N.M.v.k.k.7.7.1.o.....W R L H H j : +                 ",
"                  9 G ~ &.6.m.Z.H.E.E.).).).).).).).).J.E.J.J.G.G.N.N.N.M.v.l.k.k.7.#.3.o.X...! W U J J j , .                   ",
"                    8 R O.2.7.m.Z.H.J.J.J.).J.).).J.J.G.G.F.F.F.N.N.M.M.l.l.k.j.5.#.@.o.X...^ W Y U J H 7 o                     ",
"                      G  .O.6.c.n.n.F.F.G.G.J.G.G.G.G.F.N.n.n.v.v.v.l.l.j.j.j.$.%.3.o.X...^ / T Y J K G :                       ",
"                      8 E @.5.7.c.v.v.N.F.N.N.N.N.N.M.M.v.v.v.c.k.k.j.j.j.j.$.$.#.@.o.:...^ ' T Y ~ Q 7 O                       ",
"                        U +.$.%.5.c.v.v.v.M.B.M.v.v.v.l.l.l.k.j.j.5.j.$.$.$.$.#.@.1.>...^ / T T E |  .,                         ",
"                        H +.h.%.5.5.k.l.l.l.l.v.l.k.k.j.5.5.5.$.$.$.$.$.#.%.%.3.1.o.:.:.{ / T Y ~ @.&.,                         ",
"                        J +.h.+.$.$.j.j.k.j.j.j.j.h.5.$.$.#.#.#.#.#.#.#.#.#.o.1.>.:.:.{ { W T Y Q 5.&.,                         ",
"                        J +.h.$.#.#.$.$.$.j.5.h.$.$.$.$.#.#.#.o.@.@.o.#.1.3.1.1.1.:.:.{ / ' T Y ;.j.O.,                         ",
"                        I +.h.#.@.#.$.#.$.$.$.$.#.#.#.o.#.+.o.o.o.o.o.o.>.>.>.>.:.:.{ { / ' _ _  .z.%.7 .                       ",
"                        U +.$.+.o.#.#.#.#.#.#.#.#.#.o.o.o.o...o.....X.....>.:.:.&.:.] ] ' _ _ Y &.z.O.7 +                       ",
"                      8 J X.%.X.X.o.o.#.#.o.3.@.o.o.X.X.......o.........:...:.:.{ / } _ } _ _ `  .z.4.7 +                       ",
"                      e U ..o.X.X.o.o.o.o.o.o.o.X.........^ ^ ^ ^ ^ { { ^ { ^ { { } ' } _ ` ` _ | z.z.j +                       ",
"                      e P  .+.| ......X.X...X.........^ ^ / ^ / / / / / ] ! { ' / ] } _ ` ` _ _ ;.4.4.j O                       ",
"                      e P ! ..^ ^ ......:.....^ ^ ^ ^ / / / W R T T W _ ' ' E [ ' _ _ _ _ D D ` ] 2.4.h #                       ",
"                      e A ! ! / ^ { ^ { ..^ { / / ^ / T T ) U U U U U ) ) _ _ _ _ _ _ _ ` D ( 8.[ *.3.h #                       ",
"                      8 z R ] W / / / / ! ^ / W W R T U U A x x A z z A A ( ( U ` ` ( ( ` D D D ) &.*.N =                       ",
"                      v l Y W T / / ' W ' W W T ) U A z l l d a p a d l V z D D D ( ( D D D Z D L [ *.M =                       ",
"                      y l U Y _ _ T _ _ T ` U U P H A l d p r 1 1 1 r p a k b B Z Z Z Z Z Z Z Z L ) [ M ;                       ",
"                      6 B U ( U ` ) U U U U ) U U ( z g < : ; o o o ; , r i f f b b B b B B B B Z L ` v 2                       ",
"                      6 f V A D D C A U Y T E [ E J g 1 ; O $     $ $ o % > < i t c b b n n n n n Z Z u @                       ",
"                      6 f d l l l z J Y E ] | Q G 7 ; O                 $ O % > u t u u u u u u c n c 3 @                       ",
"                      w y f d b k H ) E Q ! G 7 : O                         $ o ; > 3 u u u u u 6 u 6 2 &                       ",
"                        6 u p f B C H H M < * +                                 . # @ 2 > 4 3 3 4 4 4 %                         ",
"                        q r t t i 7 6 5 =                                             # @ 2 4 4 4 % % &                         ",
"                          0 q q 2 2                                                         & @ & & &                           ",
"                                                                                                                                "
};
