/* XPM */
static char *vecteezy_star_shape_bubble_explosion_sprite_sheet_16962014_removebg_ezgif_com_crop__1__resized[] = {
/* columns rows colors chars-per-pixel */
"64 64 234 2 ",
"   c None",
".  c #89361B",
"X  c #993B18",
"o  c #973C0F",
"O  c #A23E14",
"+  c #973924",
"@  c #8D3A21",
"#  c #A03B20",
"$  c #9D4115",
"%  c #994419",
"&  c #9D591F",
"*  c #A7460C",
"=  c #AC500F",
"-  c #BA520F",
";  c #B6580D",
":  c #A24515",
">  c #A5411B",
",  c #A94A17",
"<  c #B44B15",
"1  c #B84A17",
"2  c #AC5112",
"3  c #A95619",
"4  c #BB5412",
"5  c #B45616",
"6  c #B24C0C",
"7  c #BA690D",
"8  c #A76118",
"9  c #B76815",
"0  c #BB750B",
"q  c #9C4722",
"w  c #AE5124",
"e  c #BF6C22",
"r  c #C45D0D",
"t  c #CA5D13",
"y  c #CB5B1B",
"u  c #C45717",
"i  c #C3630B",
"p  c #CC640D",
"a  c #CC6C0C",
"s  c #C46D0B",
"d  c #D26B0E",
"f  c #D86B0E",
"g  c #C87A0A",
"h  c #D3740D",
"j  c #D37C0C",
"k  c #DD7C0D",
"l  c #DC730D",
"z  c #CC6312",
"x  c #C86717",
"c  c #D16314",
"v  c #D56B13",
"b  c #D3641A",
"n  c #D96D18",
"m  c #D86C17",
"M  c #CA7419",
"N  c #D47412",
"B  c #DC7314",
"V  c #D47C11",
"C  c #DE7A13",
"Z  c #D8771A",
"A  c #E27B0C",
"S  c #E27C14",
"D  c #E07515",
"F  c #C77625",
"G  c #CE820A",
"H  c #DC820C",
"J  c #DC8B0D",
"K  c #D58609",
"L  c #D89409",
"P  c #DB8C13",
"I  c #D98415",
"U  c #DD9314",
"Y  c #DC9218",
"T  c #E4830E",
"R  c #E38C0B",
"E  c #EB8C0E",
"W  c #E78906",
"Q  c #EC9305",
"!  c #EC9A05",
"~  c #E4940D",
"^  c #ED930E",
"/  c #EE9B0F",
"(  c #E3990B",
")  c #F39304",
"_  c #F39C06",
"`  c #F19C0E",
"'  c #F99C07",
"]  c #E58313",
"[  c #E98611",
"{  c #E68913",
"}  c #EA8C12",
"|  c #E3861A",
" . c #EC9311",
".. c #EE9A11",
"X. c #E69715",
"o. c #F09D11",
"O. c #F19A18",
"+. c #F08F02",
"@. c #EBA60B",
"#. c #F1A206",
"$. c #F3A40E",
"%. c #FAA40B",
"&. c #F5AB0E",
"*. c #F6AC08",
"=. c #EDB60E",
"-. c #F7B20E",
";. c #F9B50D",
":. c #F9BB0D",
">. c #F5B707",
",. c #EDA412",
"<. c #EBA617",
"1. c #F2A311",
"2. c #F5AB11",
"3. c #F2A41C",
"4. c #F3AB1D",
"5. c #FBAA14",
"6. c #EEB512",
"7. c #F5B312",
"8. c #FAB412",
"9. c #F3BC13",
"0. c #F9BB12",
"q. c #F6B21B",
"w. c #FBB41C",
"e. c #FABD1B",
"r. c #F7B91A",
"t. c #D39427",
"y. c #CD8F2E",
"u. c #E09823",
"i. c #DEA633",
"p. c #F4AD23",
"a. c #F5B424",
"s. c #FBBC23",
"d. c #FABC2C",
"f. c #F8B727",
"g. c #F7BD32",
"h. c #E8AC28",
"j. c #FAC30E",
"k. c #FBCB0C",
"l. c #FCCC07",
"z. c #FDD107",
"x. c #F3C114",
"c. c #FBC312",
"v. c #FCCB13",
"b. c #FBC31C",
"n. c #FCCD1C",
"m. c #F7C81C",
"M. c #FCD013",
"N. c #FDD31B",
"B. c #FBC424",
"V. c #FBCC24",
"C. c #FBC32B",
"Z. c #FCCB2C",
"A. c #FCD424",
"S. c #FDDA25",
"D. c #FDD32C",
"F. c #FEDC2D",
"G. c #FBC433",
"H. c #FCCC34",
"J. c #FBC43A",
"K. c #FBCC3C",
"L. c #F7CC3C",
"P. c #FDD433",
"I. c #FDDB33",
"U. c #FDD33B",
"Y. c #FEDC3C",
"T. c #FEE33B",
"R. c #FEE234",
"E. c #D09941",
"W. c #D6B150",
"Q. c #E6BB45",
"!. c #E0B955",
"~. c #D3B666",
"^. c #E1BF66",
"/. c #FBCB46",
"(. c #FDD443",
"). c #FDDB44",
"_. c #FDD44A",
"`. c #FEDB4C",
"'. c #EEC957",
"]. c #FDDD53",
"[. c #FDD758",
"{. c #F1CB50",
"}. c #FEE443",
"|. c #FEE34B",
" X c #FEEA4B",
".X c #FEE946",
"XX c #FEE354",
"oX c #FEEB54",
"OX c #FEE45C",
"+X c #FEEB5B",
"@X c #FFF05E",
"#X c #ECCB61",
"$X c #EDD26A",
"%X c #FADB64",
"&X c #F3D675",
"*X c #FEE563",
"=X c #FEEB64",
"-X c #FDE26C",
";X c #FEEC6C",
":X c #FFF163",
">X c #FFF26B",
",X c #FEE472",
"<X c #FFED73",
"1X c #FEEC7C",
"2X c #FAE57A",
"3X c #FFF274",
"4X c #FFF47B",
"5X c #F6DF81",
"6X c #FEEC84",
"7X c #FCEC8B",
"8X c #F8E383",
"9X c #FFF583",
"0X c #FFF885",
"qX c #FFF58B",
"wX c #FFF88C",
"eX c #FDEE92",
"rX c #F9E899",
"tX c #FFF493",
"yX c #FFF994",
"uX c #FEF49B",
"iX c #FFF99C",
"pX c #FCEEA4",
"aX c #FEF6A4",
"sX c #FFF9A4",
"dX c #FEF6AC",
"fX c #FFF9AB",
"gX c #FEF5B3",
"hX c #FFF9B3",
"jX c #FEFABB",
"kX c #FEF5B9",
"lX c #FEFBC2",
"zX c #FEFBCA",
"xX c #FDF7C4",
"cX c #FEFCD2",
/* pixels */
"                                                                                                                                ",
"                                                            I ] H V e                                                           ",
"                                                          { ) _ _ +.A 9                                                         ",
"                                                        P ' *.*.&.#.Q H 9                                                       ",
"                                                      Y &.-.8.e.8.8.$.+.V                                                       ",
"                                                    t.4.e.b.B.B.B.s.2.#.W s                                                     ",
"                                                    h.L.(.P.H.H.H.C.s.7.! J 5                                                   ",
"                                                  i.{.<XOX).(.(.U.H.Z.b.&.! g                                                   ",
"                                                y.{.7XeX-XXX].].`.U.U.Z.0.*.J 7                                                 ",
"                                                i.8XkXuX;X*X].].XX`.(.U.V.7.@.g &                                               ",
"                                              i.-XjXjXqX<X;X*X*X*XXX`.).P.B.-.~ 9                                               ",
"                                            W.{.uXlXaX6X1X<X;X;X*XOXXX`.).P.x.=.G 3                                             ",
"                                            W.2XkXhXtX9X6X1X<X<X;X;XOXXX|.Y.V.9.L 0                                             ",
"                                          !.$XuXhXaXtX7XqX6X9X1X<X;X=X*XXX).I.V.=.K 8                                           ",
"                                        !.$X8XaXfXaXiXtXtXqX9X6X1X<X;X=X+XXX}.I.m.@.0 8                                         ",
"                                      ~.#X;XtXdXfXaXaXuXtXuXqXqX9X1X3X;X=XOXXX).D.x.L 0 8                                       ",
"                                    ~.$X2X7XaXgXhXfXsXaXiXtXtXqX9X9X1X3X;X=XOX|.Y.D.=.L 0 8                                     ",
"                                !.^.$X8XeXdXjXjXjXhXfXfXaXiXtXwX9X9X3X<X3X;X+X+X|.T.V.=.L 0 0 8                                 ",
"                        E.W.!.^.&X5X7XpXjXzXzXlXjXjXfXfXsXiXtXwXqX9X4X4X3X;X;X*XoX|.Y.n.6.@.L g 7 9 8 3                         ",
"                y.y.i.Q.#X5XrXpXpXkXkXkXzXcXcXlXjXjXhXfXsXiXyXyXqX9X9X4X3X3X>X=X+XXX|.Y.A.x.=.@.( L j s ; = :                   ",
"            t.t.h.Q.&XrXgXxXxXxXhXgXjXzXcXcXzXlXlXjXfXfXsXiXyXyXqX0X9X9X4X3X<X;X=X+XXX|.Y.D.m.m.0.7.2.@.J j a r 2 :             ",
"        I } 3.d.[.8XpXgXkXkXdXdXaXdXjXlXzXzXzXlXjXhXhXsXsXiXyXyXqXqX0X9X4X1X3X<X;X=XOXXX`.).I.V.V.b.9.7.2.1. .[ k v i 3         ",
"    M { ) 1.a.J.[.,X6X6X7X7XeXuXdXgXjXlXlXlXlXjXhXhXfXsXiXiXyXwXwXwX0X9X4X4X3X<X;X;X=XOXXX`.).L.H.Z.C.a.a.4.1...E T A f x w     ",
"  F } ) ' 5.s.G._.[.%X,X2X8X7XuXaXdXhXjXjXjXjXhXhXfXsXiXiXyXyXwX0X0X9X9X9X4X3X3X<X;X=XOXOXXX|.).U.H.G.C.f.a.4.O.O.} T A l z w   ",
"  I ) ' %.w.d././.[.%X%X2X6XeXuXaXdXgXgXhXhXhXhXfXsXiXiXyXyXwXwX0X0X0X4X4X4X3X<X<X;X=X*XOXXX]._.(./.L.G.g.f.a.3.O. .} ] B d 5   ",
"  T ) ' 5.p.d.J./.[.%X&X2X7XeXuXaXaXaXfXfXfXfXfXsXsXiXyXyXwXwX0X0X0X9X4X4X4X3X<X;X;X;X*XOXOX]._.(./.L.G.g.f.p.3.O. .} [ k p -   ",
"  A +.' 5.w.d.J./.[.%X-X,X6X7XtXuXuXaXfXaXfXsXsXiXiXyXyXwXwX0X0X9X0X4X4X4X3X<X;X;X=X=X*XOXOX].`._././.G.g.f.p.3.O. .} ] C z 4   ",
"  N W ' %.w.s.G./._.[.-X,X1X6X7XtXuXiXiXiXiXiXiXyXyXwXwXwX0X0X0X4X4X4X4X<X3X3X;X;X-X=X*XOX[.]._.(././.g.g.f.p.3... .} ] N z ,   ",
"  x T ) ' 5.s.d.K./.[.%X-X<X1X6X7XtXuXtXtXyXyXyXyXwX0X0X0X0X0X4X4X4X3X3X<X3X;X;X=X=X*XOXOXXX`._.(.L.G.g.f.a.3.....} { k d 4 q   ",
"    N W _ &.w.s.G.(._.[.*X-X1X4X6XqXqXqXtXtXwXwXwX0X0X0X0X4X4X4X4X3X3X<X;X;X;X=X*X*XOX[.].`._.(.L.L.G.d.a.4.3... .} ] B i <     ",
"      k ) ' 5.w.d.K.(.`.[.*X,X1X1X9X9XqXqXwX0X0X0X0X4X4X4X4X3X3X3X3X>X>X>X=X=X*XOXOXOXXX`._.(.L.L.G.d.a.4.2.o.o.X.} C a r q     ",
"      M W Q $.8.s.C.K._.].*X-X;X<X4X6X9X9X4X4X9X4X4X4X4X3X3X3X>X>X>X;X:X*X*X+X+XOXXX`.`.(.(.L.G.C.B.a.q.3.1... .} H V z ,       ",
"        h W #.%.w.d.H.U.`.].*X-X<X<X4X4X4X4X4X4X4X3X3X3X>X3X>X>X:X=X=X=X+XOXXXXXXX|.`.).(.L.L.C.C.a.q.2.1.o... .] k a 5         ",
"          k Q #.;.s.C.K._.].OX*X;X;X<X3X3X3X3X3X3X3X>X>X>X>X>X:X:X=X+X+X+XXXXX|.).).(.U.L.Z.C.B.r.q.2.,.o.o.^ } I h ; q         ",
"          9 k ! %.;.s.Z.U._.].OX*X;X;X<X3X>X3X>X>X>X:X>X:X:X:X+X+X+XXXXXXX|.`.).).U.U.H.Z.B.B.q.q.2.2.1.o...} P j 7 $           ",
"            M R #.*.0.B.H.U.].XXOX=X=X>X:X>X:X>X:X:X:X:X:X@X+X+XoXoX|.|.).).Y.Y.P.P.Z.C.B.e.r.6.&.2.$.,... .R H p ,             ",
"              M E #.;.e.C.U._.`.OXOX*X*X=X:X@X@X:X@X@X@XoXoXoXXX X|.}.).).U.P.P.D.Z.B.b.e.8.7.2.&.1.1... .~ J a 2               ",
"                V ! *.;.e.H.U.).`.XXoX+XoX+X+X+X@X@X@X XoX X X X}.}.Y.Y.I.P.P.Z.V.B.x.e.7.8.-.2.1.$.o... .R j = @               ",
"                  H #.;.0.B.H.U.).`.XXXXoXoX@X X@X X.X X X.X}.}.).Y.I.P.P.V.V.B.b.e.9.8.-.-.&.$.$.` ..^ ~ K ; %                 ",
"                  0 Q *.:.b.H.U.U.).`.}..X.X.X.X.X.X.X.X.XT.T.Y.I.I.D.D.V.V.b.x.c.0.;.7.&.&.&.1.1.o. .~ J 7 %                   ",
"                    V #.>.j.B.Z.P.U.Y.).T.T.}.}.T.T.T.T.T.R.I.F.D.A.V.V.b.c.0.0.:.-.-.-.5.&.$.1.......( j 2                     ",
"                    e ~ >.k.b.B.V.P.P.I.Y.Y.R.T.T.R.T.R.R.F.D.A.A.n.b.c.c.0.0.:.-.-.&.2.1.$.` ......,.~ 7 %                     ",
"                      k *.l.c.b.B.Z.D.D.I.I.I.F.R.F.F.F.S.N.N.N.n.c.c.c.:.:.:.;.-.&.2.2.1.1.` O...,.@.P 2                       ",
"                      C #.l.k.:.x.b.V.V.A.S.S.S.S.S.N.N.N.N.N.v.c.j.:.:.0.;.-.-.*.&.&.1.o.` ` ^ ^ 2.6.K :                       ",
"                      M ! l.z.:.:.0.c.v.n.N.N.N.N.N.N.N.v.v.c.j.j.:.:.0.;.-.&.2.2.&.1.1.o./ ^  ...7.6.j $                       ",
"                      M ! z.z.:.;.0.0.c.k.v.M.v.M.M.M.k.j.j.j.:.:.:.;.-.-.2.&.2.2.1.o.o.o. . . ...9.9.g $                       ",
"                      M ! l.z.:.;.;.:.:.j.j.k.v.k.v.v.j.c.j.0.9.8.-.8.5.2.&.&.$.1.1.o.o. . .} } / 9.9.g $                       ",
"                      N Q l.l.:.*.;.:.:.j.j.c.k.j.k.c.c.:.:.:.8.-.-.&.&.&.$.$.1.` o..... . .} } ..9.x.G $                       ",
"                      h ! l.j.*.*.-.;.:.:.:.j.c.j.c.j.9.:.-.7.-.&.5.2.$.$.$.1.o.`  .O. . .} } ] ..9.9.P :                       ",
"                      h Q :.:.&.$.-.5.;.0.0.0.c.c.0.0.;.8.-.-.2.&.$.1.1.o.o.o.^ ..O.}  .} } ] ] X.7.x.P :                       ",
"                      N Q ;.;.*.$.%.&.-.;.8.:.:.:.7.8.-.&.2.$.$.$.1.o.` ` o.O. . . .} } } | ] | X.6.6.U ,                       ",
"                      B E &.-.#.#.$.&.5.7.8.7.7.7.7.7.2.&.$.1.o.` / ` ` ^  . . . .} } } ] ] S | } <.x.U 2                       ",
"                      h Q &.$.` ` ` $.&.2.2.2.7.2.2.2.$.$./ ` `  .^ ^ ^  . .}  .} } ] ] | ] D S | <.6.Y 2                       ",
"                      N T _ ` ` ` ` ` 1.2.2.2.2.2.2.1.` o... . . .}  . .} } [ [ [ ] ] ] S S D D | O.<.Y 5                       ",
"                      v [ ^ ` ^ ^ ` o.` 1.1.2.1.o.o.o.` ^ ^ E } E [ [ [ [ [ [ ] ] S | C D D B D B | 3.P 5                       ",
"                      c A ) ^ E ^ ^ ^ .............. .^ } } T k A S A S ] ] S S S | D B D B B m Z | X.I <                       ",
"                      z S [ E [ E E ^  .^ ....1.$./ ^ ^ W h d r r p d l B C C D D D D D B n m n n Z I Z <                       ",
"                      z l T [ [ [ } } }  ...,.,.,.,.L j i 6 * $ O * 6 r p f f B B D B n n n n b n n n x ,                       ",
"                      x f A A [ S T }  ...,.,.@.U K i = o . .       . X 6 4 t c c f m m n b b b b b c 4 #                       ",
"                      w c B A A S ] [  .X.( U j 7 * .                   . X * - u t c c b b b b y y y 1 #                       ",
"                        y f B l B l k H j s ; : X                             X : < u y u u y y y y 1 # +                       ",
"                        1 t c z z z t ; = : @                                     + X O 1 1 1 u 1 1 1 #                         ",
"                          < 4 1 4 = , %                                                 + + > > > # #                           ",
"                                                                                                                                "
};
