/* XPM */
static char *vecteezy_star_shape_bubble_explosion_sprite_sheet_16962014_removebg_ezgif_com_crop__3__resized[] = {
/* columns rows colors chars-per-pixel */
"64 64 244 2 ",
"   c None",
".  c #7A2B13",
"X  c #8E340E",
"o  c #983A0D",
"O  c #893414",
"+  c #933A14",
"@  c #963918",
"#  c #842D11",
"$  c #A73E17",
"%  c #8B3621",
"&  c #9C4312",
"*  c #9B4517",
"=  c #9E410F",
"-  c #AC4C0C",
";  c #A5470D",
":  c #B34F0C",
">  c #AB510C",
",  c #B4530C",
"<  c #BB540D",
"1  c #BB5B09",
"2  c #A24413",
"3  c #AB4613",
"4  c #AB4918",
"5  c #B34916",
"6  c #BC5413",
"7  c #B75615",
"8  c #A75012",
"9  c #A64E20",
"0  c #C35C0E",
"q  c #C35C06",
"w  c #C35A13",
"e  c #C95F12",
"r  c #C7571A",
"t  c #D05E1D",
"y  c #C86609",
"u  c #D16B09",
"i  c #DB740D",
"p  c #DB7D0E",
"a  c #D77607",
"s  c #CD6212",
"d  c #C76717",
"f  c #D16612",
"g  c #D56B12",
"h  c #D96D13",
"j  c #D3641B",
"k  c #D56A1B",
"l  c #D86D1A",
"z  c #CD7316",
"x  c #D47312",
"c  c #DC7313",
"v  c #DD7A14",
"b  c #DB741A",
"n  c #DE7A19",
"m  c #D27819",
"M  c #E37D0C",
"N  c #E27C13",
"B  c #E07E19",
"V  c #E57A11",
"C  c #DB830C",
"Z  c #DC8615",
"A  c #E38306",
"S  c #EB8C05",
"D  c #E2840B",
"F  c #E9850F",
"G  c #EB8C0D",
"H  c #E4880B",
"J  c #ED930D",
"K  c #EE980B",
"L  c #F29304",
"P  c #F69C04",
"I  c #F99C04",
"U  c #F1950B",
"Y  c #F29C0C",
"T  c #E48314",
"R  c #E88311",
"E  c #E68B15",
"W  c #EA8D13",
"Q  c #E38218",
"!  c #E68B19",
"~  c #EB9413",
"^  c #ED9B13",
"/  c #EC961B",
"(  c #ED9C1B",
")  c #E59815",
"_  c #F09E17",
"`  c #F38F03",
"'  c #F5A40D",
"]  c #FAA30B",
"[  c #F6AC0D",
"{  c #FAAD0B",
"}  c #F8A805",
"|  c #FBBC06",
" . c #F7B30E",
".. c #F9B40C",
"X. c #FABB0C",
"o. c #F9B306",
"O. c #EEA214",
"+. c #EEA51B",
"@. c #EFAA15",
"#. c #F1A413",
"$. c #F3AB13",
"%. c #FCAB13",
"&. c #FBAE1A",
"*. c #F4A81A",
"=. c #F5B313",
"-. c #FAB412",
";. c #F6BB14",
":. c #F9BC12",
">. c #F5B41C",
",. c #F4BC1B",
"<. c #FBBB1B",
"1. c #FBB11D",
"2. c #EFBA1E",
"3. c #D79B27",
"4. c #EC9B21",
"5. c #DBB73B",
"6. c #EDA123",
"7. c #F3AC23",
"8. c #F3AB2A",
"9. c #F2A424",
"0. c #FCB523",
"q. c #F4B32C",
"w. c #F6BC2B",
"e. c #FCBB2A",
"r. c #F8B825",
"t. c #F6B432",
"y. c #F6BB34",
"u. c #FABE37",
"i. c #E4B132",
"p. c #FDCD06",
"a. c #FBC30B",
"s. c #FCCA0A",
"d. c #FBC204",
"f. c #FED306",
"g. c #FED407",
"h. c #F6C216",
"j. c #FAC413",
"k. c #FBCA13",
"l. c #FAC31B",
"z. c #FCCB1C",
"x. c #F4C41B",
"c. c #FBD11C",
"v. c #EEC82D",
"b. c #FBC424",
"n. c #FBCB24",
"m. c #FCC42C",
"M. c #FCCC2C",
"N. c #F5C823",
"B. c #FBD324",
"V. c #FCD22C",
"C. c #FBD62B",
"Z. c #EAC537",
"A. c #FCC234",
"S. c #FCCC34",
"D. c #FBC43A",
"F. c #FBCC3B",
"G. c #F7C13D",
"H. c #FDD334",
"J. c #FDD43C",
"K. c #FDDB3B",
"L. c #F9D939",
"P. c #FDE13D",
"I. c #DAAF4F",
"U. c #DFBE67",
"Y. c #E2B64C",
"T. c #FAC641",
"R. c #FCCC43",
"E. c #FCCC49",
"W. c #F2C148",
"Q. c #EDD449",
"!. c #FDD543",
"~. c #FEDB44",
"^. c #FCD44D",
"/. c #FEDC4B",
"(. c #F1D74A",
"). c #EEC75A",
"_. c #FDD552",
"`. c #FDDC53",
"'. c #FDDC5B",
"]. c #F9D657",
"[. c #FDE245",
"{. c #FEE44B",
"}. c #FEE353",
"|. c #FEEA55",
" X c #FEE45B",
".X c #FDEB5D",
"XX c #F4E259",
"oX c #FEDC63",
"OX c #FEDC6A",
"+X c #FADD76",
"@X c #EACD72",
"#X c #FEE464",
"$X c #FEEB63",
"%X c #FEE46C",
"&X c #FEEC6B",
"*X c #F4E666",
"=X c #FEF16D",
"-X c #FEF067",
";X c #EDE37C",
":X c #FEE473",
">X c #F5EC75",
",X c #FFEC73",
"<X c #FEE47C",
"1X c #FFED7B",
"2X c #F0E673",
"3X c #FEF274",
"4X c #FEF47C",
"5X c #EDE16D",
"6X c #DDC58E",
"7X c #E7DB88",
"8X c #F7DB87",
"9X c #E3CB92",
"0X c #FFEC83",
"qX c #FEED8B",
"wX c #F6E883",
"eX c #FFF583",
"rX c #FFF885",
"tX c #FFF48B",
"yX c #FFF88B",
"uX c #FCEC96",
"iX c #FFF593",
"pX c #FFF993",
"aX c #FEF59C",
"sX c #FFF99C",
"dX c #FAEAA7",
"fX c #FFF5A4",
"gX c #FFF9A4",
"hX c #FEF6AC",
"jX c #FFF9AC",
"kX c #FAECB5",
"lX c #FEF5B4",
"zX c #FFF8B4",
"xX c #FEF9BC",
"cX c #FEF6BD",
"vX c #EFE0AE",
"bX c #E8D7AD",
"nX c #FEF6C6",
"mX c #FEF9C4",
"MX c #FEF9CC",
"NX c #FCF3CB",
"BX c #FEFAD2",
"VX c #FFFADA",
"CX c #FEFAE3",
"ZX c #FEFBEA",
/* pixels */
"                                                                                                                                ",
"                                                          n E G S S p d                                                         ",
"                                                        W U I I I L L D d                                                       ",
"                                                      ~ _ I I _ %.I I L A y                                                     ",
"                                                    ( %.&.1.0.0.0.&.%.] L M ,                                                   ",
"                                                  6.t.D.A.A.u.u.u.e.0.&.] L a 8                                                 ",
"                                                i.u.OXOX].E.E.E.R.D.A.0.&.Y S y                                                 ",
"                                              I.W.+XdX0XOX'.]._._.E.R.A.e.&.P A 1                                               ",
"                                            I.W.+XcXkXqX+XOXoXoX'._.E.E.D.e.&.U a ;                                             ",
"                                            ).+XnXBXhXqX<X:XOX%XOX'.]._.R.A.0.%.S q &                                           ",
"                                          U.+XkXBXnXfXqX0X<X:X:X%X%XoX'._.R.S.0.' C 1                                           ",
"                                        @X8XkXBXMXhXaXuXqX0X0X<X:X:X%XoX'._.R.A.<.K a >                                         ",
"                                      6X8XdXnXMXxXhXaXuXuXqXeX0X1X1X:X%X#X'._.R.e.1.S y >                                       ",
"                                    9XdXhXnXMXmXzXhXfXaXiXqXtX0X0X1X1X,X%XoX'._.R.m.%.H y >                                     ",
"                                  bXkXnXNXBXMXmXcXhXfXfXaXiXtXeXeX0X1X1X,X%X#X'.^.R.m.*.C y >                                   ",
"                              9XbXNXCXZXVXBXmXmXzXhXfXaXaXiXiXqXeX0X1X1X:X,X%XoX'.^.F.e.' C y , &                               ",
"                          6X7XdXNXCXZXZXVXBXmXmXzXjXgXsXaXiXtXtXeXeXeX1X1X,X,X%X#X'.^.R.e.*.C u q > &                           ",
"                      U.7XwXlXnXVXCXZXCXBXNXmXxXzXjXgXsXaXtXtXeXeX0X4X1X1X:X,X%X%X#X'._.E.m.>.~ C y 1 > &                       ",
"                  Y.).wXdXnXBXBXVXVXVXVXBXmXxXxXjXgXgXsXiXtXyXtXeX0XeX1X1X,X:X%X%X#XoX'._.E.D.e.*.W p u q , 2                   ",
"              5.W.:XhXMXVXBXMXmXNXNXBXnXMXmXzXzXjXgXsXpXpXyXyXeXeXeX4X0X3X,X,X&X%X#X#X'.`._.E.T.y.7.+.G M u q : 2               ",
"          3.t.].qXcXBXMXmXxXxXxXmXmXmXmXxXxXzXjXgXsXsXpXyXyXrXrXeX4X1X4X1X,X,X&X%X#X#X'.'.].^.E.D.u.t.8.( / V V y , 2           ",
"        4.w.].uXhXxXzXhXfXhXhXzXzXzXxXxXzXjXjXgXgXsXpXpXyXyXrXrXeX4X4X1X3X,X,X&X&X#X#X#X'.'._.E.E.T.u.t.8.9._ W F i f <         ",
"      ^ >.F.#X1X0XtXqXiXaXaXfXhXjXzXjXjXjXgXgXsXsXpXyXyXyXrXrX4X4XeX3X3X3X&X&X&X&X&X#X X`.`._.^.E.T.G.y.t.8.9.4.W R N g y 9     ",
"    ~ } <.S./.'.%X,X1XeXqXiXaXaXgXgXjXgXgXgXsXsXpXpXyXyXrXrXrX4X4X3X4X3X3X,X&X&X#X#X X'.'.`._.^.E.T.G.G.t.8.8.4./ W R N g s 9   ",
"  Z } { <.m.J./.'.#X,X1X0XiXiXaXsXsXsXgXsXsXpXpXpXyXyXrXrXrX4X4X4X3X3X=X&X&X&X&X$X#X X X`.`._.^.Q.R.G.y.t.t.8.9.4.W R N N j 6   ",
"  J ] { <.m.S.!.`.#X%X,X1XtXtXiXpXsXpXaXsXpXpXyXyXrXrXrXrX4X4X4X4X3X3X3X=X-X$X$X.X.X X}.`.`.^.(.R.T.F.A.t.q.9.4.4.W T R N g w   ",
"m L } { <.m.S.!./. X#X&X,X4XeXtXtXiXpXpXyXyXyXrXrXrXrX4X4X4X4X3X3X3X=X=X-X-X$X$X.X X}.}.`./.^.!.F.F.G.y.q.q.7.+./ W R R N g w * ",
"m ` I { 1.m.S.J./.'. X$X,X1X1XeXrXtXrXrXyXyXrXrXrXrX4X4XwX  ;X4X3X3X-X$X$X.X.X.X X}.}.}./.~.!.!.F.D.A.w.w.7.9.( / W E V N g 6 * ",
"  G I { -.e.S.F.!.`. X#X&X&X3X4XeXeXeXeXrXrXrXrX4X4X4X>X    7X    2X-X-X.X.X|.|.|.}.{./.~.!.J.J.F.A.w.w.7.7.+.( ~ W T T h f 7   ",
"  D L } -.<.m.S.!./.`. X$X&X,X3X1X4X4XeXeXeX4X4X4X4X4X    7X        *X.X.X.X|.|.}.{./.~.!.!.J.F.A.v.w.r.>.*.( ^ ~ E R N h e 4   ",
"  m S I { <.e.M.J.!.`. X#X$X&X,X3X4X4XeX4X4X4X4X3X3X3X;X7X            *X|.|.|.{.{.~.~.!.L.J.F.v.m.w.r.>.*.*.^ ~ W E R v g < *   ",
"    D L } ..<.b.S.!././. X#X&X&X,X3X3X3X4X3X3X3X3X3X=X>X                XX}.{.{.[.[.~.L.J.S.M.m.b.w.>.@.#._ ^ ~ W E E v s 5     ",
"    z S I o.<.r.m.J.!./.`. X$X&X&X3X3X3X3X3X3X=X3X>X                        (.{.P.K.K.H.H.M.m.b.,.>.>.#.O.^ ~ ~ W W E g w *     ",
"      p L o.| :.b.M.H.!./.}. X$X&X&X&X3X=X=X=X=X2X                            (.K.K.H.H.M.M.b.b.,.>.@.#.^ ^ ~ ~ ~ ~ Z s 3       ",
"        A I | | j.b.M.J.~.`.}. X$X$X$X-X=X-X-X-X5X                            Q.L.C.V.V.n.b.b.<.>.=.$.#.^ ^ ~ ~ ^ ) i 7 +       ",
"        z S } | X.l.m.S.J.~.`.}. X#X$X$X$X-X.X-X*X                            L.H.C.n.n.N.h.,.=.=.%.#.#.^ ^ ^ O.O.Z y o         ",
"          i P | a.k.b.m.S.J./.{.}. X X.X$X.X.X|..X                          U.Z.V.B.N.l.h.,.=.=.$.#.#._ K ^ @.@.^ x -           ",
"            H o.d.s.j.n.M.J.J./.{.}.}. X|.|.|.|.|.XX                            B.n.x.h.:.;.=.=.$.#.O.^ O.@.@.@.Z 7 X           ",
"            m U | p.s.z.n.M.H.!.~./.{.}.|.{.|.{.{.{.                          v.z.l.l.:.;.=.=.$.$.O.^ ^ @.$.=.) y o             ",
"              C } s.p.s.l.M.M.H.!.~.~.~.{.[.[.{.[.[.(.                        N.j.j.j.:.=.=.%.$.O.O.O.$.=.;.=.C - #             ",
"                S d.f.f.k.z.n.S.H.J.!.~.~.K.[.P.P.P.(.                    Z.x.k.h.:.:.;.=.%.@.#.O.Y @.@.;.h.O.1 O               ",
"                p o.f.f.s.j.l.b.M.H.H.H.K.K.K.K.P.P.L.                    x.j.h.:.:.;.=.$.$.#.O.^ O.@.=.h.h.C =                 ",
"                z Y f.f.p.a.j.l.b.M.M.H.H.H.C.H.C.C.C.Z.    Z.v.v.5.    i.j.j.:.;.;.=.$.$.$.O.^ ^ #.@.h.k.@.y O                 ",
"                  C d.f.f.a.a.<.<.l.n.n.n.B.V.B.C.B.B.B.B.B.c.z.x.        2.j.X.;.X.=.$.$.#.O.^ O.O.=.j.k.) > .                 ",
"                  v o.f.f.s.| ..-.j.l.l.z.b.z.n.z.c.z.z.k.c.k.k.z.i.      ,.;.;. .=.=.@.@.O.^ ^ ^ O.=.j.j.C o                   ",
"                  z ' f.g.a.| ....-.:.:.j.j.j.k.j.k.k.k.k.k.h.a.s.j.,.2.;.:.;.=.=.$.%.#.#.^ ^ ~ ^ O.=.h.,.z X                   ",
"                    K s.p.a.o.{ ......-.X.X.X.j.j.a.a.h.s.j.a.j.h.h.j.;.:.;. .=.$.$.#.#.^ ^ ~ ~ ) O.=.x.@.1 #                   ",
"                    H a.p.| ..{ { { ....X.-.X.X.X.X.j.a.j.h.j.:.;.X.X.;.;.=.=.$.$.$.#.#.^ ( / W E +.=.j.@.> .                   ",
"                    C X.s.|  .' ' { { .... .X.=.X.X.:.:.:.:.X.;.;.;.=.=.=.=.$.$.#.@.O.^ ^ ^ W E W O.,.h.) ;                     ",
"                    C o.a...o.' ' ] [ $.$... . .=.-. .;.-. .;.=.=.=.=.=.$.@.$.#.#.O.( ^ ) W ! E W @.h.,.E =                     ",
"                    v } d...' Y ' ' ' %.{ [ [ %.=. .=. .=.=.-.=.$.=.$.$.@.#.@.#.^ ^ ^ ~ ! E E T E @.h.,.Z +                     ",
"                    i Y X.} ' Y Y Y ' ' ' $.$.[ [ $.[ $.$.[ $.$.$.$.#.#.@.#.O.^ ^ ^ / ~ E E Q Q ! +.h.;.x +                     ",
"                    x K  .[ K K U Y _ ' ' ' #.' $.' ' $.#.$.#.#.#.#.#._ ( ^ ^ ~ / ~ W ! E Q Q T ! *.x.>.z X                     ",
"                    d G ' ' K K U U Y Y ^ Y #.#.#.#.#.' ' _ ' _ _ ^ ^ ^ ^ ^ ^ / ~ ! E ! T Q Q n E +.x.@.d X                     ",
"                    d R ' Y K S U J U ~ K Y _ Y ^ Y ^ ^ Y Y ^ ~ K ~ ~ ~ ~ ~ ~ E E ! E T Q B n N Q +.,.6.w X                     ",
"                    d A ^ Y G G G ~ J U J ~ U ~ J ^ ~ ^ ~ ~ ~ ~ ~ ~ W ~ E E E E E E Q Q B B b b B / @.) 7 O                     ",
"                      i J U G F G W G G J J J J J ~ ~ ~ ~ W E E E E T E T T T Q Q Q B B n b b b n ! 6.Q 5 O                     ",
"                      x E G F F F F R W W W ~ J U J W G E R R R R R T R T T N B B N n b b b l l l Z 4.m 4                       ",
"                      f N F V V M R F W J Y _ #.#.O.~ W M N i c x c c b b B n n b b b b l l k j k b Z d 3                       ",
"                      d V M V V V F W ^ _ %.=.$.O.~ v i f 0 0 < < < 6 s f g l h b l l k l k j j t k j r @                       ",
"                        f V h V N E ~ #.#.O.) C x y < - ; o o X X o o o 3 6 w e j j j f t t t t t t r 9 %                       ",
"                        7 e f g i v D p a f 0 < ; = O O                   O @ 2 5 6 r r t r t r r 5 5 %                         ",
"                          7 w w w 6 < 7 - 2 @                                     @ @ 4 4 5 5 5 5 $ %                           ",
"                                4 2 *                                                     % @ @                                 "
};
