/* XPM */
static char *vecteezy_star_shape_bubble_explosion_sprite_sheet_16962014_removebg_ezgif_com_crop__7__resized[] = {
/* columns rows colors chars-per-pixel */
"64 64 209 2 ",
"   c None",
".  c #8A3B31",
"X  c #9B4128",
"o  c #AF4925",
"O  c #AA4729",
"+  c #A95428",
"@  c #B75529",
"#  c #BE5F3E",
"$  c #BA6028",
"%  c #B96829",
"&  c #B8732F",
"*  c #AE6035",
"=  c #B66F36",
"-  c #BB6A33",
";  c #BD653E",
":  c #BC683D",
">  c #BB7131",
",  c #DE7B1F",
"<  c #C55A2B",
"1  c #CA5E2A",
"2  c #C85D32",
"3  c #C46D24",
"4  c #C66328",
"5  c #C36A2C",
"6  c #CD6C2C",
"7  c #C76825",
"8  c #D86D2D",
"9  c #D56A2D",
"0  c #C77027",
"q  c #D27323",
"w  c #D97724",
"e  c #D5752B",
"r  c #D07F29",
"t  c #DC7A2D",
"y  c #DA7629",
"u  c #C46C35",
"i  c #D36532",
"p  c #D56C33",
"a  c #D96D30",
"s  c #C77A32",
"d  c #C7763C",
"f  c #C97A3B",
"g  c #CA7533",
"h  c #D47433",
"j  c #D57C33",
"k  c #D97A31",
"l  c #D17B38",
"z  c #E47B27",
"x  c #E17D2B",
"c  c #C57945",
"v  c #ED8D1C",
"b  c #E5891E",
"n  c #F28C1B",
"m  c #ED901E",
"M  c #F59E1F",
"N  c #FA9C1C",
"B  c #FAA11E",
"V  c #FBA91C",
"C  c #F9A617",
"Z  c #FAB01E",
"A  c #DC8626",
"S  c #DC842C",
"D  c #D68329",
"F  c #D68631",
"G  c #DC8234",
"H  c #D5883F",
"J  c #D78B36",
"K  c #D69037",
"L  c #DF983B",
"P  c #DD923E",
"I  c #E58225",
"U  c #EB8525",
"Y  c #EC8A23",
"T  c #E4822B",
"R  c #E48E2C",
"E  c #EC8A2A",
"W  c #EA802B",
"Q  c #F08A22",
"!  c #EF9324",
"~  c #EC922C",
"^  c #E7992C",
"/  c #ED992C",
"(  c #E59122",
")  c #F29523",
"_  c #F29B24",
"`  c #FB9F24",
"'  c #F19D2D",
"]  c #E48E34",
"[  c #E48532",
"{  c #E49133",
"}  c #EB9B34",
"|  c #E3933A",
" . c #EB933C",
".. c #E39A3A",
"X. c #E99F3B",
"o. c #E89733",
"O. c #F4A225",
"+. c #F9A324",
"@. c #F3A32C",
"#. c #F9A629",
"$. c #F3AA2C",
"%. c #FAAA2C",
"&. c #F9AA25",
"*. c #F7B12A",
"=. c #FABD2D",
"-. c #FBB726",
";. c #EDA137",
":. c #E7A038",
">. c #EEA43B",
",. c #E9A935",
"<. c #F4A737",
"1. c #F7AC33",
"2. c #F2AF3E",
"3. c #F7B833",
"4. c #F7B637",
"5. c #FECF23",
"6. c #FECE2E",
"7. c #FCC22A",
"8. c #FDC638",
"9. c #FBC738",
"0. c #BE8B49",
"q. c #CE8140",
"w. c #D78B47",
"e. c #D28D4B",
"r. c #CF9448",
"t. c #CB9648",
"y. c #DE9A41",
"u. c #D0974E",
"i. c #D39948",
"p. c #D99846",
"a. c #C79E5C",
"s. c #DD9F51",
"d. c #E79C40",
"f. c #DFA741",
"g. c #DDA749",
"h. c #DFA94A",
"j. c #D5A151",
"k. c #D7A759",
"l. c #DAAA5C",
"z. c #DFB15D",
"x. c #E2A749",
"c. c #E9A849",
"v. c #E7B246",
"b. c #ECB248",
"n. c #F3B245",
"m. c #F3BE42",
"M. c #F6B24B",
"N. c #F6B849",
"B. c #F8BE46",
"V. c #E5AF57",
"C. c #F0A551",
"Z. c #ECB554",
"A. c #E6B856",
"S. c #F2BF58",
"D. c #D7A562",
"F. c #DFB561",
"G. c #D5B86F",
"H. c #EFB664",
"J. c #E1BB65",
"K. c #F3BB66",
"L. c #E9B977",
"P. c #EEC549",
"I. c #FBCC40",
"U. c #F3C14E",
"Y. c #FAC44B",
"T. c #F7CC48",
"R. c #FAC646",
"E. c #FCD949",
"W. c #ECC15A",
"Q. c #FBCD55",
"!. c #F2C45A",
"~. c #F4CA5C",
"^. c #F9CF59",
"/. c #F0C054",
"(. c #FCD254",
"). c #FBD45B",
"_. c #FDD85C",
"`. c #FCDD52",
"'. c #D7C479",
"]. c #DBC37B",
"[. c #E7C76B",
"{. c #EAC168",
"}. c #EBCC6B",
"|. c #F4C963",
" X c #FBD664",
".X c #F5DF67",
"XX c #FCDC63",
"oX c #F4DE68",
"OX c #F6D36E",
"+X c #ECCF70",
"@X c #E3CE7A",
"#X c #E8C377",
"$X c #EED976",
"%X c #F5DC73",
"&X c #F0D778",
"*X c #F4D172",
"=X c #FBE36B",
"-X c #FDEB6E",
";X c #FBE274",
":X c #FBEA7D",
">X c #DFCF82",
",X c #DCCA89",
"<X c #ECC985",
"1X c #F2C881",
"2X c #F5DD84",
"3X c #E7D993",
"4X c #F9EB8C",
"5X c #F6E684",
"6X c #F2E69C",
/* pixels */
"                                                                                                                                ",
"                                                                    <XZ.                                                        ",
"                                                                    #XM.K                                                       ",
"                                                    A.Z.              u.                                                        ",
"                                                  z.Y.N.                                                                        ",
"                                                  !.Y.n.                                                                        ",
"                                                +X).Y.x.                                                                        ",
"                                              ,X:XQ.B.r.                    j.p.                                                ",
"                                              6X;XQ.c.                      !.2.                                                ",
"                                            3X4X_.U.t.                      *XR.X.                                              ",
"                                            4X=X^.x.                        }.`.$.                                              ",
"                                          2X=X XZ.0.                        F._.*...                                            ",
"                                        @X=X_.~.t.                            ).=.@.                                            ",
"                                        %X=X~.j.                              U.8.#...                                          ",
"                                      $X=X~.l.                                x.=.&.@.                                          ",
"                                    >X%X}.D.                                    <.&.+.}                                         ",
"                                                                                p.#.+.+.o.                                      ",
"                              @X'.        ].[.                                    ..O.+.B ' {                                   ",
"                  [.$X5X4X5X;X*XG.                                                  J { _ _ N _ ~ ] F                           ",
"              {.^.). XXX X~.F.a.                                                          s D S A A D =                         ",
"              J.W.!.W.A.l.                                                                                                      ",
"                                                                                                                                ",
"                                                                                                                        [ T     ",
"                                                                                                                      l T z u   ",
"                                                                                                                          -     ",
"                                                                                                                                ",
"                                                                                                                                ",
"  x.v.                                                                                                                          ",
"  n.9.9.                                                                                                                        ",
"  2._.`.m.                                                                                                                      ",
"  >.Y.5XE.v.                                                                                                      f j u         ",
"  d.4. X-XI.g.                                                                                                  p. .U 7         ",
"    c.4.XXE.4.                                                                                                D.|.} z @         ",
"      <.3.I.9.c.                                                                                            i.!.>.U 4           ",
"      y.1.*.8.3.                                                                                            ;.@.U q             ",
"        d.%.%.1...                                                                                        J ) Y w +             ",
"          ;.%.%.}                                                                                         E Y t @               ",
"            :.$.' s                                                                                     j E I $                 ",
"              | R 0                                                                                     S T 5                   ",
"                  *                                                                                     f >                     ",
"                                                                                                                                ",
"                                                                                                                                ",
"                      y.}                                                                                                       ",
"                      | +.{                                                                                                     ",
"                      ^ ` ^                                                                                                     ",
"                      O.B _                                                                                                     ",
"                    ,.-.V )                                                                                                     ",
"                    P.5.V m                                                                         c                           ",
"                    .X6.C m                                                                         T h                         ",
"                    =X7.N b                                                                          .l                         ",
"                    T.Z N w                                                                       w.C.k                         ",
"                    &.B m %                                                                       D.H.e                         ",
"                    ( n ,                                                                         L.H.h                         ",
"                    & 3       ~                                                                 c 1Xc.9                         ",
"                            H D                                                                 w.K. .i                         ",
"                                                                                                d.d.x 6                         ",
"                                                                                              l ~ R 8 <                         ",
"                                      s.V.M.$.+.O._ Y Y E [ G h j j l                       u x ] x i @                         ",
"                q.l               y.K.2XOXm.$._ ) Y Y Y I w 7 3 q t W T s                 ; h x t a 1 O                         ",
"                                G } M.n.@._ ) v Y U t 6 $           h t k                 h a a a i @ X                         ",
"                                Y E Y v U v Y T t 5                                     ; a a i i < O                           ",
"                                W U U U T t w -                                         # p p i < o .                           ",
"                                f j k h u                                                 # 2 < O .                             ",
"                                                                                                                                "
};
