/* XPM */
static char *vecteezy_star_shape_bubble_explosion_sprite_sheet_16962014_removebg_ezgif_com_crop__2__resized[] = {
/* columns rows colors chars-per-pixel */
"64 64 240 2 ",
"   c None",
".  c #85321C",
"X  c #8D3518",
"o  c #953914",
"O  c #9B3D12",
"+  c #943919",
"@  c #842D17",
"#  c #AB3F17",
"$  c #9C3B20",
"%  c #933728",
"&  c #9C4619",
"*  c #A3410C",
"=  c #AB490D",
"-  c #B34D0C",
";  c #B4520C",
":  c #BA5A0A",
">  c #A34311",
",  c #AB4415",
"<  c #A54C14",
"1  c #A5431A",
"2  c #AA4A16",
"3  c #B54D15",
"4  c #BB4B18",
"5  c #AB5212",
"6  c #BB5414",
"7  c #B65616",
"8  c #AC550C",
"9  c #BD6107",
"0  c #BD611C",
"q  c #AC4D24",
"w  c #C25D0E",
"e  c #C15E05",
"r  c #C35A13",
"t  c #C3531A",
"y  c #CB5B1C",
"u  c #C55A13",
"i  c #C5630C",
"p  c #CB640E",
"a  c #C96A08",
"s  c #D46D0E",
"d  c #D96E0D",
"f  c #CB7108",
"g  c #DB7D0C",
"h  c #D67709",
"j  c #CC6413",
"k  c #CE611A",
"l  c #C76818",
"z  c #D46B14",
"x  c #D3641C",
"c  c #D66B1A",
"v  c #D86C16",
"b  c #CD7516",
"n  c #D47412",
"m  c #DC7513",
"M  c #DD7913",
"N  c #DB7319",
"B  c #DE7A19",
"V  c #D47C17",
"C  c #E27B0D",
"Z  c #E27D13",
"A  c #E07E18",
"S  c #E27712",
"D  c #CE7A21",
"F  c #DB840B",
"G  c #DC8412",
"H  c #DC8816",
"J  c #DE9116",
"K  c #EB8C05",
"L  c #E4830C",
"P  c #EB8B0D",
"I  c #E5880A",
"U  c #ED9306",
"Y  c #ED930D",
"T  c #EC9C09",
"R  c #E79809",
"E  c #F59A04",
"W  c #F19C0E",
"Q  c #F29504",
"!  c #E48415",
"~  c #E68A15",
"^  c #E98C13",
"/  c #E18219",
"(  c #E68D18",
")  c #E88110",
"_  c #EB9414",
"`  c #ED9B13",
"'  c #EB951A",
"]  c #ED9A19",
"[  c #E49914",
"{  c #F09D12",
"}  c #F09D1E",
"|  c #F08E01",
" . c #EDA806",
".. c #F3A205",
"X. c #F4A40D",
"o. c #FBA50D",
"O. c #F6AB0D",
"+. c #F9AD0C",
"@. c #F9A806",
"#. c #F5B205",
"$. c #F7B20E",
"%. c #F9B40C",
"&. c #FABB0C",
"*. c #F7BB06",
"=. c #EFA313",
"-. c #EEAC14",
";. c #EAA617",
":. c #F1A413",
">. c #F3AB13",
",. c #F3AC1C",
"<. c #F3A71B",
"1. c #EFB315",
"2. c #F5B313",
"3. c #FAB312",
"4. c #F6BA13",
"5. c #F9BC12",
"6. c #F4B31C",
"7. c #FBB51B",
"8. c #FCBC1C",
"9. c #F6B91B",
"0. c #DC9925",
"q. c #D49130",
"w. c #E99A21",
"e. c #E7AB2C",
"r. c #F2A422",
"t. c #F3AB24",
"y. c #F3AC2A",
"u. c #ECB22C",
"i. c #F5B324",
"p. c #FBBC23",
"a. c #F4B32C",
"s. c #F6BC29",
"d. c #FAB926",
"f. c #E5AE38",
"g. c #F7BC34",
"h. c #F7BB34",
"j. c #ECBC32",
"k. c #FAC507",
"l. c #FCCE06",
"z. c #FCC30A",
"x. c #FDCC0A",
"c. c #F7C607",
"v. c #FDD307",
"b. c #FDD708",
"n. c #F6C315",
"m. c #FAC312",
"M. c #FBCA13",
"N. c #F6C418",
"B. c #FAC41B",
"V. c #FCCC1B",
"C. c #F7C917",
"Z. c #FCD31D",
"A. c #FBD016",
"S. c #FBC324",
"D. c #FCCC23",
"F. c #FCC32A",
"G. c #FCCC2A",
"H. c #FCD323",
"J. c #FDD826",
"K. c #FCD42C",
"L. c #FDDA2C",
"P. c #FAC332",
"I. c #FCCB33",
"U. c #F9C43C",
"Y. c #FCCC3C",
"T. c #F7C031",
"R. c #FDD334",
"E. c #FDDD34",
"W. c #FDD53B",
"Q. c #FEDB3C",
"!. c #ECC038",
"~. c #FEE23C",
"^. c #FEE036",
"/. c #DDB351",
"(. c #E6AF4A",
"). c #D7B667",
"_. c #D7BF75",
"`. c #FBCC43",
"'. c #F8CB47",
"]. c #FDD343",
"[. c #FEDB43",
"{. c #FCD44B",
"}. c #FEDC4B",
"|. c #F3D144",
" X c #F5CB58",
".X c #FDD553",
"XX c #FDDB55",
"oX c #FDDD5C",
"OX c #FAD558",
"+X c #E8C44E",
"@X c #FEE444",
"#X c #FEE44C",
"$X c #FEE94C",
"%X c #FEE847",
"&X c #FEE453",
"*X c #FEEB53",
"=X c #FEE45C",
"-X c #FEEB5C",
";X c #FFF05E",
":X c #DFC777",
">X c #FDDE60",
",X c #F8DA68",
"<X c #F6D975",
"1X c #E9CD6A",
"2X c #FEE364",
"3X c #FEEC63",
"4X c #FEE56B",
"5X c #FFEC6C",
"6X c #F7E168",
"7X c #FFF164",
"8X c #FFF26C",
"9X c #FEE572",
"0X c #FEEC73",
"qX c #FEEC7C",
"wX c #FAE47E",
"eX c #FFF374",
"rX c #FFF47C",
"tX c #F1DB82",
"yX c #FEEE84",
"uX c #FBE786",
"iX c #FFF583",
"pX c #FFF884",
"aX c #FEF58B",
"sX c #FFF88B",
"dX c #FDEC97",
"fX c #FEF593",
"gX c #FEF994",
"hX c #FEF59A",
"jX c #FFF99C",
"kX c #FEF5A3",
"lX c #FFF9A4",
"zX c #FEF6AB",
"xX c #FFFAAC",
"cX c #FFFAB3",
"vX c #FFFABB",
"bX c #FEF6B4",
"nX c #FEEFA2",
"mX c #FFFBC4",
"MX c #FFFBCB",
"NX c #FEFDD2",
/* pixels */
"                                                                                                                                ",
"                                                          D G I I L m                                                           ",
"                                                        / Y Q E E Q K C 0                                                       ",
"                                                      w.{ o.o.o.o.o.E | g 7                                                     ",
"                                                    w.r.h.d.d.7.d.7.o.E U f 5                                                   ",
"                                                  0.a.OX.X`.P.g.d.p.7.+.E K a                                                   ",
"                                                q.y.,XuX9X.X`.`.Y.P.d.8.O.E F :                                                 ",
"                                              q.a.,XnXnXuXoX.X.X].Y.I.F.9.@.U h 5                                               ",
"                                              f. XdXmXzXqX,XoXoX.X{.].I.F.5.o.K i &                                             ",
"                                            (.'.uXMXMXkXyX9X4X2XoXXX.X].Y.d.3...g :                                             ",
"                                          /. X<XbXNXvXfXyX9X9X4X2XoXXX}.].I.p.3.U f 5                                           ",
"                                        ). X,XnXNXmXzXdXaXuXuX0X9X4X>XoX}.].I.p.$.K a <                                         ",
"                                      ).1X,XuXmXMXbXnXdXdXyXyXqX0X4X4X2XXX}.].I.8...F 9 <                                       ",
"                                    :X<XwXdXvXmXvXbXkXhXfXaXiXyXqX0X9X4X2XXX{.W.F.4.E h 9 <                                     ",
"                                  :X<XdXhXbXmXmXvXcXkXkXhXfXaXyXyXqX0X9X2X2XXX{.W.F.3.T h 9 <                                   ",
"                              ).:XtXnXbXvXmXmXmXbXxXlXlXhXfXaXaXiXqXqX0X9X2X>XXX{.Y.F.3. .h 9 8 &                               ",
"                          ).1X1X0XfXxXmXMXMXmXvXcXxXxXjXhXfXfXaXiXiXqXqX0X4X4X>XXX{.Y.d.3.T F a 9 8 &                           ",
"                      /.+XOX6XwXfXzXvXMXMXmXmXvXcXxXlXlXjXfXaXaXiXyXrXqX0X9X4X4X2XXX{.Y.F.3.@.U F f e ; >                       ",
"                  f.!.|.XX0XaXkXcXmXmXMXmXmXvXvXcXxXlXlXjXfXfXaXyXiXiXqXqX0X9X4X4XoXXX{.Y.P.d.>.W Y L h a : -                   ",
"              e.j.|.6XyXlXmXMXMXMXmXmXvXmXvXvXcXxXlXlXjXfXgXaXaXiXyXiXqXqXqX0X4X4X2XoX.X{.`.P.d.3.:.W Y P C d u 5 &             ",
"          0.u.|.6XfXbXMXNXNXMXmXvXcXvXvXvXcXcXxXlXlXjXjXgXfXaXpXiXiXyXrXqX0X0X0X4X4X>XoXXX{.'.U.g.i.<.} W Y P S d p 6           ",
"        ;.a.|.0XhXzXvXvXvXcXcXxXxXcXcXcXcXxXxXxXlXlXjXgXsXsXaXpXiXiXrXqXrX0X0X5X5X4X2X>XoXOX.X'.`.g.h.y.<.{ Y ) L g d j 7       ",
"    q.R 2.G.}.5XiXaXfXfXfXjXjXlXlXxXxXxXxXxXlXlXjXjXgXgXsXaXsXpXiXiXrXqXeX0X0X5X5X2X2X2XoXOX.X{.`.'.h.h.y.r.} ' ^ ) Z d j 7     ",
"    Y O.5.G.].#X=X5X0XiXiXfXfXhXjXlXlXlXlXlXlXjXjXgXgXsXsXsXpXpXrXrXrXeX0X0X0X5X5X4X2X=X=XXX.X{.`.`.g.h.h.y.r.} _ ^ ) Z m j q   ",
"  H ..%.8.G.R.}.XX3X5XqXrXiXfXfXgXjXlXjXlXjXgXjXgXsXsXsXpXpXpXrXrXrXeXeXeXeX5X5X4X3X2X=XoXXXXX{.'.`.U.g.h.y.y.} ' ^ ) Z S z 6   ",
"  P o.3.8.G.R.[.}.=X3X5XqXrXiXaXgXgXgXgXgXgXgXgXgXsXsXsXpXpXpXrXrXrXeX0X0X5X5X5X3X3X=X=X&XXXXX|.{.`.U.!.h.a.r.r.] ^ ~ ) S z r 1 ",
"b K @.+.B.F.I.W.}.&X2X5X0XrXiXaXaXgXgXgXgXgXgXsXsXpXpXpXpXpXrXrXeXeXeXeX8X5X3X3X3X=X=X=XXXXX}.{.`.Y.U.g.a.a.t.} ] ^ ~ Z m z r 1 ",
"  K @.+.8.S.I.W.[.&X=X3X5XeXqXiXiXaXsXgXsXsXsXpXpXpXpXpXrXrXeXeXeXeX8X8X5X3X3X3X=X=X&X&XXX}.|.].`.U.P.g.a.t.r.} ' ^ ) ! m j 7 & ",
"  L E @.%.B.D.R.[.}.&X=X5X5XeXrXrXiXiXpXsXpXpXpXpXpXrXrXrXeXeXeX8X8X8X8X3X3X-X-X=X&X&X}.}.{.|.|.Y.P.T.s.i.,.;.] _ ^ ! ! m j 3   ",
"  V K @.+.5.S.I.R.}.&X=X3X5X0XeXrXrXiXiXiXpXpXpXrXrXrXrXeXeXeX8X8X8X3X7X3X-X-X-X&X&X&X}.{.[.W.Y.I.T.T.i.t.<.] ` _ ^ ! M z r 1   ",
"    L E @.&.8.D.I.Q.}.&X-X3X5XeXeXrXrXrXrXrXrXrXrXrXeXeXeXeX8X8X8X7X3X-X-X-X&X&X#X#X#X[.[.W.R.I.T.T.i.6.,.=.` _ _ P ~ M p 3     ",
"    n K @.%.&.B.G.W.[.}.&X=X3X5X8X0XrXrXrXrXrXrXeXeXeX8X8X8X7X7X7X-X-X*X*X*X$X#X#X@X[.|.W.R.I.F.S.p.i.1.:.=.` _ _ _ ! m u 2     ",
"      g E @.*.m.D.G.W.[.#X&X-X3X5X8XeXeXrXeXeXeXeX8X8X7X7X;X;X;X-X-X-X$X$X#X#X@X@X[.Q.W.R.I.F.S.S.i.6.-.:.` _ ` _ _ M s 3       ",
"      b I ..*.z.m.D.R.W.}.&X=X3X5X5X5XeX8X8XeX8X8X8X7X7X7X;X;X;X*X*X*X#X#X%X@X@XQ.Q.R.R.I.D.S.S.9.1.<.:.:.` ` =.=.( n w &       ",
"        n U #.k.z.V.G.R.W.}.&X=X-X3X3X8X8X8X8X8X7X7X;X;X;X;X;X$X$X$X$X%X%X@X[.Q.E.R.R.G.D.S.N.i.2.>.O.=.:.` =.=.=.G p >         ",
"          F  .*.k.M.V.K.R.[.[.&X=X=X3X3X3X3X3X3X7X;X;X;X*X$X$X$X$X%X%X@X~.Q.E.E.R.K.G.G.S.N.9.1.2.>.:.=.` -.>.=.[ n ; o         ",
"          l R #.k.k.V.D.R.W.[.#X&X&X-X-X-X3X-X-X;X;X*X*X$X$X$X%X@X@X~.~.Q.E.E.K.J.G.D.B.B.4.2.3.>.:.X.` :.>.1.-.H : O           ",
"            b T k.l.l.V.D.R.W.[.}.#X&X=X&X-X*X*X$X$X$X$X%X%X%X%X~.~.~.E.E.K.K.H.D.D.N.N.4.5.2.>.>.:.=.:.-.2.2.[ f ,             ",
"              G #.l.v.k.V.K.R.W.[.}.#X#X&X#X$X$X$X$X%X%X%X~.~.^.~.^.E.E.K.J.H.D.V.N.N.5.2.2.2.>.:.:.:.>.2.4.1.G ; o             ",
"              b R l.v.v.M.D.G.R.W.Q.[.[.@X#X@X~.%X~.%X~.~.~.^.^.L.L.L.J.H.D.V.V.B.m.5.5.2.2.>.:.:.:.:.>.4.4.;.9 O               ",
"                G #.b.b.x.C.D.G.K.R.Q.Q.Q.~.~.@X~.~.~.^.^.^.^.L.L.J.H.Z.Z.V.M.m.m.5.4.2.2.>.>.:.T =.>.1.n.4.G 5 .               ",
"                b  .l.b.x.C.B.D.G.K.R.R.W.E.W.E.E.E.E.L.L.L.J.J.J.Z.Z.Z.M.m.m.n.4.5.2.2.>.>.:.:.` =.>.4.n.-.a O                 ",
"                  R c.b.v.z.n.B.V.D.G.G.K.R.L.L.K.J.J.J.J.J.Z.Z.A.A.C.C.m.m.m.m.5.2.2.2.>.>.=.` ` =.1.n.C.[ 8 .                 ",
"                  G *.b.v.k.z.5.B.B.V.D.D.D.H.H.H.J.J.Z.Z.A.A.A.M.M.C.z.m.m.4.4.5.2.2.>.:.:.=.` ` >.1.n.n.F *                   ",
"                  b  .v.v.k.*.*.&.8.m.B.V.V.V.V.V.V.A.M.M.M.M.M.M.m.z.m.5.5.4.4.2.>.>.>.:.=.` _ ` =.4.n.1.f o                   ",
"                    =.l.v.z.*.%.%.&.&.5.&.m.m.m.M.M.x.M.x.M.M.m.m.m.m.5.5.4.2.2.2.>.<.:.=.` ` ` ` -.5.n.;.9 .                   ",
"                    R k.l.z.*.%.%.%.&.&.&.z.z.m.m.z.m.m.m.m.m.m.n.5.5.5.4.2.2.2.>.>.<.=.` ` _ _ ` >.n.n.[ ; @                   ",
"                    I &.l.&.%.%.+.%.%.%.5.&.5.5.5.m.z.z.m.n.4.5.5.4.4.4.2.2.2.>.>.:.=.=.` _ _ ( ` ,.M.n.J =                     ",
"                    F #.c.&.#.O.+.+.$.%.%.&.&.5.5.&.5.5.5.5.4.&.4.2.2.2.2.>.>.<.<.:.=.` ] _ ( ^ ` ,.C.n.F &                     ",
"                    g O.z.&.+.O.O.+.O.O.%.2.$.5.$.5.5.4.4.&.2.4.2.2.2.2.>.>.<.=.=.] ` _ ^ ^ ^ ^ ' 1.C.4.V *                     ",
"                    V ..*.%.O...o.X.O.+.>.+.O.%.$.%.$.2.3.2.2.2.2.>.O.>.<.O.:.=.` ` _ _ _ ^ ( ( ' 1.C.1.f #                     ",
"                    n T $.+.X.X.W X.X.:.O.>.O.>.>.>.$.2.2.>.2.>.>.>.<.:.=.=.=.` ` ` _ ' ^ / / ! ' ,.C.1.b &                     ",
"                    b Y O.O...Y W W o.X.X.:.>.X.>.O.>.>.>.O.:.:.:.:.:.:.{ ` ` _ ' _ ( ( ( ! A / ( -.9.1.l o                     ",
"                    l I O.X.W T Y { { W { X.X.:.:.:.X.:.:.=.X.:.` =.` ` { _ ] _ ( _ ( ! / A A A ( ;.4.e.i o                     ",
"                    l C W W W Y Y W W { W W W :.X.X.` { :.{ ` { ` ` ` _ ' _ _ ( ^ ~ ! ! A A A A / ' i.[ 6 +                     ",
"                    l g W W Y P Y Y Y Y Y { ` T ` ` ` ` ` _ ` _ _ _ _ ^ ^ ^ ( ~ ~ / ! / B S N N B ( ;.J 6 +                     ",
"                    0 d P Y P P P _ Y Y Y Y Y ` Y ` ` _ _ Y _ ^ ^ ^ ~ ~ ~ ! ! ! ! / G A N N S c N / w.V 3 X                     ",
"                      n L ^ ) P ) ^ P ^ Y { ` =.:.:.` ` _ ! ! L M S A ! ! A A ! B M B B N N c c c N A b , .                     ",
"                      k C ) ) ) P P ^ Y { :.>.$.>.=.` ~ g s p i i j p z n m m B N N N N c c c x x c c r #                       ",
"                      0 d S Z Z ) P _ =.>.>.>.=.[ F f w ; = * * * * = - 6 j j z v v c c c x x x x x y 4 $                       ",
"                        j S d S ! I [ ` R H M f w - > O X .         . X o > , 6 6 j j k x y x y y t 4 # %                       ",
"                        q u p d s n n a i : 5 > o                           . o # 2 3 4 t t t t 4 q # %                         ",
"                            3 6 6 6 2 2 & +                                         % $ 1 # , , # 1 %                           ",
"                                                                                                                                "
};
