/* XPM */
static char *vecteezy_star_shape_bubble_explosion_sprite_sheet_16962014_removebg_ezgif_com_crop__4__resized[] = {
/* columns rows colors chars-per-pixel */
"64 64 241 2 ",
"   c None",
".  c #8B3513",
"X  c #883814",
"o  c #953B19",
"O  c #913A0F",
"+  c #973721",
"@  c #9D410B",
"#  c #9B4017",
"$  c #AA4B0B",
"%  c #A0450C",
"&  c #B14E0E",
"*  c #AC530D",
"=  c #B4530B",
"-  c #BB5C0B",
";  c #B65909",
":  c #AC4C13",
">  c #A3441B",
",  c #A9431B",
"<  c #A44815",
"1  c #B44E15",
"2  c #BB4D18",
"3  c #AE5117",
"4  c #BC5413",
"5  c #B85616",
"6  c #B9630D",
"7  c #BE6514",
"8  c #C25D05",
"9  c #C35D12",
"0  c #C65B1C",
"q  c #C85C14",
"w  c #C9660B",
"e  c #D56B0C",
"r  c #CF780D",
"t  c #D57203",
"y  c #D3740E",
"u  c #DC740C",
"i  c #D57C0E",
"p  c #DA7C0B",
"a  c #DB7A04",
"s  c #CB6313",
"d  c #C56D15",
"f  c #C96617",
"g  c #D16511",
"h  c #DC6E12",
"j  c #D36C1D",
"k  c #D56B16",
"l  c #CC7113",
"z  c #C87319",
"x  c #D47413",
"c  c #DC7214",
"v  c #DC7B1D",
"b  c #D87917",
"n  c #E57C0E",
"m  c #E67D0C",
"M  c #E27512",
"N  c #E47B12",
"B  c #D87120",
"V  c #DB830E",
"C  c #DA880D",
"Z  c #DE811D",
"A  c #DB8714",
"S  c #D8971A",
"D  c #DC950E",
"F  c #EC8A04",
"G  c #E5840C",
"H  c #EA840E",
"J  c #E58C0D",
"K  c #EC8B0D",
"L  c #E68705",
"P  c #F08D0B",
"I  c #EE920D",
"U  c #EC9708",
"Y  c #F39305",
"T  c #F59A04",
"R  c #F1940C",
"E  c #F39C0B",
"W  c #F99C06",
"Q  c #E58314",
"!  c #EA8512",
"~  c #E58A13",
"^  c #EA8C13",
"/  c #E1841C",
"(  c #E48B1B",
")  c #EA8C1A",
"_  c #E49510",
"`  c #EB9413",
"'  c #ED9B14",
"]  c #E5911B",
"[  c #EA941B",
"{  c #EB9C1A",
"}  c #F29D13",
"|  c #F39717",
" . c #F08F16",
".. c #E9A90E",
"X. c #F6A305",
"o. c #FAA406",
"O. c #F5A30B",
"+. c #F9A40A",
"@. c #F6AA0D",
"#. c #FAAA0C",
"$. c #F7AC04",
"%. c #F9B406",
"&. c #FABB05",
"*. c #F7B30D",
"=. c #FAB20C",
"-. c #F9BB0B",
";. c #EDA314",
":. c #ECAA13",
">. c #EDA319",
",. c #EDAB1B",
"<. c #E4A91F",
"1. c #F1A312",
"2. c #FAA511",
"3. c #F3AC13",
"4. c #FBAB14",
"5. c #F2A31C",
"6. c #F2AB1A",
"7. c #FBAD19",
"8. c #EDB21E",
"9. c #EFB216",
"0. c #F4B414",
"q. c #FBB313",
"w. c #F6BB14",
"e. c #F2B41A",
"r. c #FBB31B",
"t. c #F4BA19",
"y. c #FBBA1C",
"u. c #FCBB14",
"i. c #EDB00F",
"p. c #DA9A2D",
"a. c #D7952E",
"s. c #EE9823",
"d. c #F19B23",
"f. c #F19F28",
"g. c #DBA72B",
"h. c #DEB33A",
"j. c #DDAD30",
"k. c #E5AA24",
"l. c #E6A726",
"z. c #F3A225",
"x. c #FAAC20",
"c. c #F2A52B",
"v. c #F5AB2A",
"b. c #E5B12A",
"n. c #E9B927",
"m. c #FCB523",
"M. c #FCBC24",
"N. c #FCBC2B",
"B. c #F5B827",
"V. c #F3AB31",
"C. c #E8BA39",
"Z. c #F5B334",
"A. c #FCBD33",
"S. c #F9BB3C",
"D. c #F7B937",
"F. c #E3AF31",
"G. c #FCC305",
"H. c #FDC20C",
"J. c #FDCC06",
"K. c #FDD20A",
"L. c #F6C114",
"P. c #F9C614",
"I. c #FACC14",
"U. c #F9C61C",
"Y. c #FDD114",
"T. c #F2C525",
"R. c #FCC22D",
"E. c #FAC526",
"W. c #EEC136",
"Q. c #FCC334",
"!. c #FCCB34",
"~. c #FCC53B",
"^. c #FDCA3C",
"/. c #F2C335",
"(. c #FED33E",
"). c #D6B24B",
"_. c #E9BF43",
"`. c #F9BE41",
"'. c #E6C644",
"]. c #FAC443",
"[. c #FCCC44",
"{. c #FCCD4C",
"}. c #F8C645",
"|. c #FDD244",
" X c #FDD34C",
".X c #FEDB4E",
"XX c #FCDA42",
"oX c #E9C858",
"OX c #F7CD54",
"+X c #FDD453",
"@X c #FDDA55",
"#X c #FDD559",
"$X c #FDDB5C",
"%X c #F3D85A",
"&X c #ECD55A",
"*X c #FEE35C",
"=X c #DCC66B",
"-X c #E2CC66",
";X c #ECD669",
":X c #FEDE63",
">X c #F4DA6A",
",X c #EAD675",
"<X c #ECD575",
"1X c #FEE264",
"2X c #FEE46B",
"3X c #FCE76E",
"4X c #FEE671",
"5X c #FEEA74",
"6X c #FEEC7B",
"7X c #F3E37C",
"8X c #EADF84",
"9X c #E5DD90",
"0X c #FDEE82",
"qX c #FBED8C",
"wX c #F8E384",
"eX c #FEF183",
"rX c #FEF38C",
"tX c #EAE59D",
"yX c #EBE690",
"uX c #F2EE9C",
"iX c #FEF594",
"pX c #FCF59C",
"aX c #FFF89C",
"sX c #FAF597",
"dX c #EAE08A",
"fX c #EBE7A3",
"gX c #FDF5A6",
"hX c #FEF9A3",
"jX c #FFF7AA",
"kX c #FEF9AC",
"lX c #F7F2A2",
"zX c #EBE7B6",
"xX c #F2EFBF",
"cX c #FEFAB4",
"vX c #FCF7BB",
"bX c #FEFBBC",
"nX c #F7F4B9",
"mX c #F0EDA1",
"MX c #FEFCC3",
"NX c #FEFDCA",
"BX c #FEFDD2",
/* pixels */
"                                                              z z                                                               ",
"                                                          b J F F G y                                                           ",
"                                                        Q R W W E Y F u                                                         ",
"                                                      ( R +.4.4.7.2.W P p                                                       ",
"                                                    A 1.7.m.m.m.m.x.4.W F e                                                     ",
"                                                  a.1.r.N.A.Q.A.A.N.m.2.Y L w                                                   ",
"                                                  l.A.~.~.[.[.[.~.Q.A.m.2.Y a -                                                 ",
"                                                l.}.:X#X+X+X X X[.[.~.N.7.X.F y                                                 ",
"                                              p.`.wXqX2X:X$X$X#X#X X[.Q.M.4.W L -                                               ",
"                                              C.wXvXpX6X4X2X1X:X$X+X X[.Q.m.2.Y t <                                             ",
"                                            h.>XvXMXiX0X6X4X4X2X1X$X@X X^.Q.r.+.L -                                             ",
"                                          ).oXjXNXcXiXqXwX0X6X4X2X1X$X+X{.~.N.7.Y t *                                           ",
"                                          oXqXNXMXgXpXqXqXqX0X6X4X2X1X$X+X[.~.m.#.F 8                                           ",
"                                        -X>XjXMXvXjXaXpXiXqXeX0X6X3X2X1X$X+X[.Q.m.E t =                                         ",
"                                      =X<XiXbXbXbXjXgXpXaXiXrXeX6X5X3X2X1X@X X^.A.7.F 8 %                                       ",
"                                      7XqXkXMXMXcXcXjXgXaXiXrXeXeX6X5X4X1X$X#X[.~.N.} a ;                                       ",
"                                  ,X7XuXkXMXNXMXbXcXkXgXhXiXrXrXeX6X6X5X2X1X$X+X[.~.m.R t ; %                                   ",
"                            ).-X,X0XsXcXNXBXNXMXbXcXcXlXlXpXaXrXeX0X6X5X2X2X:X#X+X{.A.x.F t 8 = :                               ",
"                      ).'.&X7XqXsXhXcXNXBXBXNXMXbXnXzX    uXiXrXrX6X6X6X5X2X:X:X#X{.].A.7.I m m w 8 = $ %                       ",
"                g.h.W.%XeXkXbXbXbXbXMXNXBXNXNXMXxX        pXrXrXiXeXeX6X6X4X2X:X:X+X{.`.D.x.|  .F H a e w - & <                 ",
"            S b.!.*XeXkXNXNXMXcXcXbXbXNXNXNXMXMX        uXsXuX    dX0X6X6X4X3X2X:X#X+X].`.S.v.x.| |  .P m m M e 9 1             ",
"        S ;.w.!.*XrXhXcXcXkXhXhXkXcXbXbXMXbXxX        uXsXtX        8X0X6X5X4X2X:X:X#X+X].`.D.v.x.5.| |  . .m n u h q *         ",
"      _ O.-.E.(.*X6XeXeXrXrXaXaXkXkXcXbXbXbXzX      mXpXfX            8X6X5X4X4X>X:X#X#X{.].`.D.Z.v.f.d.|  .) ! n N h g 4       ",
"    J X.#.P.!.(..X*X5X6XeXrXiXaXhXkXcXcXkXcX      mXlXtX                wX5X4X4X>X:X:X#X+XOX}.`.D.Z.V.v.f.d.s.) ! N n c g 0     ",
"  A Y o.q.y.!.(..X*X1X5XeXeXiXaXhXhXkXkXkXkXfX  sXlXfX                    7X4X3X2X:X:X#X#XOX{.}.`.Z.Z.V.c.f.s.) ) N N M k q 2   ",
"  J o.#.q.E.!.(..X@X1X5X6XeXrXaXaXaXhXhXaXaXpXpXsX                          ,X3X2X:X$X:X#X+X{.}.`.`.`.Z.V.c.s.s.) ) N M h g 2   ",
"  H W #.q.M.R.^.XX*X*X5X5XeXeXiXiXaXaXaXaXaXsXuX                                >X2X:X$X#X+XOX{.`.`.S.Z.V.c.f.s.) Q N M c g 5   ",
"  L W o.q.M.E.!.|..X*X1X5X6XeXeXrXrXiXiXsXsX                                      -X>X@X+X+X{.}.}.`.D.Z.V.c.d.[ ) N N N h g 1   ",
"  p Y W #.r.N.!.^..X@X*X2X5X6XeXeXrXrXsXyX                                            ;X%X X X}.}.S.D.Z.v.z.{ [ ^ Q N N h q :   ",
"  l F W o.q.r.R.!.(..X$X1X3X5X6X6XeXeXyX                                                oX{.|.}.}.D.D.v.v.z.{ ^ Q Q Q N k 9 >   ",
"    V Y o.#.q.M.Q.^.|.@X*X1X3X5X6X6X8X                                                    oX[.!./.N.B.v.6.{ ` ^ ^ G Q b s 1     ",
"    d L W o.4.r.M.Q.^. X@X$X2X3X5X6X                                                        }.Q.R.B.B.,.5.' ` ^ ^ ` ~ x - >     ",
"      y Y X.#.q.m.N.!.[. X@X:X2X3X4X                                                        /./.T.B.7.6.} ' ` U ` ` V s :       ",
"        V T $.$.q.m.R.~.[.+X$X:X1X1X,X                                                    '.C.  B.e.6.5.' ' ' ' ' _ w :         ",
"          L X.$.=.r.M.Q.[. X+X$X:X$X>X                                                    /.    n.0.3.1.;.1.:.:._ x * o         ",
"          l U %.%.u.r.N.Q.[.+X+X@X$X:X-X                                                C.E.    6.3.1.1.1.3.@.' i & o           ",
"            i U %.&.u.M.N.~.{. X+X+X@X&X                                                T.B.F.8.4.3.@.:.w.w...A $ .             ",
"              V X.&.-.P.M.Q.~.[.{.|. X X                                              T.T.    ,.0.0.0.w.L.0.C * X               ",
"                C $.G.P.U.N.Q.~.].[.[.|.OX                                          W.T.      8.0.0.w.P.L.D * .                 ",
"                  F %.J.I.E.R.A.Q.~.^.^.[.                                          T.n.      e.0.-.P.I...; .                   ",
"                  l U G.K.Y.E.M.N.Q.Q.Q.^.'.                                        T.      b.0.w.L.I.P.C #                     ",
"                    i $.K.Y.U.E.N.N.N.R.R./.                                        T.      8.0.w.L.I.w.;                       ",
"                      U J.K.P.y.r.m.M.N.E.A.                                        U.      e.0.9.L.I.i.*                       ",
"                      J G.K.H.u.r.r.r.y.M.N.                                      C.U.n.  l.e.0.9.w.I...*                       ",
"                      V G.J.-.%.@.4.4.r.0.r.F.                                    n.U.U.b.8.0.6.0.0.L...*                       ",
"                      V &.J.&.#.+.#.@.#.4.-.,.                                    T.t.t.w.e.6.:.:.0.t...*                       ",
"                      V &.G.%.+.W X.O.@.$.#.3.                                    n.  n.t.e.3.;.>.3.t.:.*                       ",
"                      V &.&.%.+.W E X.+.+.+.@.,.        k.8.e.w.t.e.n.b.j.      n.    j.e.6.6.>.>.:.t.:.5                       ",
"                      V %.-.$.E W E W +.+.2.@.#.3.3.3.3.-.q.*.0.u.8.    b.b.b.b.j.    g.e.6.>.>.{ ,.w.9.6                       ",
"                      V @.&.o.E R W E E E O.O.O.#.O.@.4.@.0.0.*.0.<.                  l.,.,.>.' { >.t.e.7                       ",
"                      V @.@.X.R R R E E E O.E 1.O.1.O.1.3.@.0.@.*.k.                  ,.3.>.>.{ { >.w.t.7                       ",
"                      V $.$.E R Y R R R E E E O.O.E O.1.O.1.O.3.1.3.g.              l.6.,.>.{ ] ] >.t.t.d                       ",
"                      i O.X.U K P P R R R R E R R } } O.' 1.1.1.1.1.3.s.p.      p.l.>.5.>.>.[ ( ] >.t.e.d                       ",
"                      A E E Y K P K P R R R ` R R R R R R ' ' E 1.1.' ;.>.>.>.{ >.>.>.>.{ { s.S ( { e.e.d                       ",
"                      i R R F H K K K P ` P P I ` ` I ` I ` ' ' ` ' ' ' { ` ' ' { ' { { [ [ s.( ( ] ,.,.d                       ",
"                      x I R H ! K H H K K ^ K K I K K K K ^ K ~ ^ _ ` [ ` [ { [ { [ [ ] ] ( ( / Z ( { >.7                       ",
"                      l ^ K H n ! H H ! ! H H J K ! J ! Q N u l l i Q ( ^ ^ ] ] ( ] ] ] ( ( ( Z Z Z ] p.5                       ",
"                      d G n n n n n H m ! ! ^ ^ ` R ^ G u 8 = $ $ = w x Z Q ~ Q ( ( ( / ( / Z Z v v Z B 3                       ",
"                      d n n n N n n N G H ^ R O.1.} J y = % O     X % = w x b Z / N Z v B / Z v j B B f >                       ",
"                      5 h M M M M N N ! R 1.3.1._ i ; % .             X O = 9 k c b b v v B B B j j f 2 +                       ",
"                        q h h h M M N J ` ` C l = @ .                     . o : 4 f j j j j j j j 0 2 ,                         ",
"                        3 s g g g e e x w - < O                                 o > 1 5 0 0 0 0 2 2 , +                         ",
"                            1 1 5 * 3 < #                                             + # > , , , >                             ",
"                                                                                                                                "
};
