/* XPM */
static char *vecteezy_star_shape_bubble_explosion_sprite_sheet_16962014_removebg_ezgif_com_crop__5__resized[] = {
/* columns rows colors chars-per-pixel */
"64 64 224 2 ",
"   c None",
".  c #B9561B",
"X  c #A74B2A",
"o  c #AB5429",
"O  c #BB5E22",
"+  c #B85827",
"@  c #B14C31",
"#  c #B85830",
"$  c #AD4D2F",
"%  c #BB602B",
"&  c #B3743C",
"*  c #C35F1E",
"=  c #CB651D",
"-  c #CC6B1C",
";  c #D26F1C",
":  c #D4721D",
">  c #DE771C",
",  c #DD7C1C",
"<  c #E27D1D",
"1  c #C1562C",
"2  c #C85D2D",
"3  c #C26424",
"4  c #CC6A22",
"5  c #C26B2A",
"6  c #C9672C",
"7  c #D96D2E",
"8  c #D4682A",
"9  c #C77226",
"0  c #D47422",
"q  c #DC7625",
"w  c #DD7C21",
"e  c #DD732C",
"r  c #DD7B2F",
"t  c #D4792B",
"y  c #C96834",
"u  c #D36431",
"i  c #D56B30",
"p  c #D86B31",
"a  c #CB7836",
"s  c #D47333",
"d  c #D57A34",
"f  c #DB7C33",
"g  c #D37C3A",
"h  c #D77837",
"j  c #E37D24",
"k  c #E0772B",
"l  c #E37C2A",
"z  c #E87F25",
"x  c #C46A40",
"c  c #CF7D40",
"v  c #EA831E",
"b  c #ED8C1C",
"n  c #E3841B",
"m  c #F28E1F",
"M  c #F5931E",
"N  c #F8961D",
"B  c #F6991D",
"V  c #FA9B1C",
"C  c #F7A41E",
"Z  c #F9A41E",
"A  c #F7AA1F",
"S  c #F9AC1D",
"D  c #FAB21D",
"F  c #FAB51D",
"G  c #D9872B",
"H  c #C98437",
"J  c #DA8234",
"K  c #DC8A33",
"L  c #D4823B",
"P  c #DB863A",
"I  c #DB8D3B",
"U  c #D78135",
"Y  c #DB943B",
"T  c #E68323",
"R  c #EB8424",
"E  c #ED8A23",
"W  c #E4832A",
"Q  c #E88229",
"!  c #E58B2D",
"~  c #E98B2A",
"^  c #E68C24",
"/  c #F18D21",
"(  c #EE9324",
")  c #EB932A",
"_  c #E6942A",
"`  c #F39322",
"'  c #F39B24",
"]  c #FA9E22",
"[  c #F29B2B",
"{  c #F09628",
"}  c #E38B32",
"|  c #E18B39",
" . c #E18735",
".. c #E49333",
"X. c #E69C35",
"o. c #EB9C33",
"O. c #EA9C3A",
"+. c #E69637",
"@. c #F39F31",
"#. c #F5A324",
"$. c #FAA324",
"%. c #F5A129",
"&. c #FAA529",
"*. c #FBAB2D",
"=. c #F8AE24",
"-. c #FCB520",
";. c #FBB924",
":. c #FBB42E",
">. c #FBB92C",
",. c #ECA33C",
"<. c #EAA33A",
"1. c #F3A334",
"2. c #F5AB36",
"3. c #FAAC32",
"4. c #F1A539",
"5. c #F5AB3A",
"6. c #F6B335",
"7. c #FBB334",
"8. c #FCBB34",
"9. c #FBB53A",
"0. c #FCBB3B",
"q. c #F3B839",
"w. c #FEC51E",
"e. c #FDD723",
"r. c #FBC234",
"t. c #FCC33B",
"y. c #FDCB3D",
"u. c #FAC938",
"i. c #FED33D",
"p. c #FEDA3A",
"a. c #FCCA2A",
"s. c #B88349",
"d. c #C58942",
"f. c #D38846",
"g. c #C89647",
"h. c #DC9B43",
"j. c #D79A42",
"k. c #C38459",
"l. c #E39C45",
"z. c #DAA44D",
"x. c #D8A54B",
"c. c #DBAA5B",
"v. c #DFB25D",
"b. c #DFB150",
"n. c #E2A343",
"m. c #ECA542",
"M. c #EEAA46",
"N. c #E4A44B",
"B. c #ECAC4C",
"V. c #E6A847",
"C. c #F2AC43",
"Z. c #F0A740",
"A. c #EDB54D",
"S. c #ECB645",
"D. c #F4B344",
"F. c #FABC43",
"G. c #F5B74B",
"H. c #F9BE4A",
"J. c #F6B846",
"K. c #E2A653",
"L. c #E5AB52",
"P. c #E9B655",
"I. c #ECBB54",
"U. c #E3B558",
"Y. c #F7BC55",
"T. c #EBBB61",
"R. c #EAC343",
"E. c #FCC442",
"W. c #FCCB42",
"Q. c #FBC34C",
"!. c #FCCA4D",
"~. c #FDD642",
"^. c #FEDD41",
"/. c #FDD24A",
"(. c #FDDA4D",
"). c #EFCC5D",
"_. c #F9C552",
"`. c #FCCC53",
"'. c #F6CC5D",
"]. c #FBCE58",
"[. c #F6C457",
"{. c #FCD354",
"}. c #FDD35B",
"|. c #FEDD5D",
" X c #FEDC53",
".X c #FEE147",
"XX c #FDE356",
"oX c #FDE45C",
"OX c #FEE85E",
"+X c #FDE854",
"@X c #EAC767",
"#X c #F6C769",
"$X c #F6D463",
"%X c #FCD561",
"&X c #FEDB63",
"*X c #FCDC6C",
"=X c #F5D76B",
"-X c #E7CB78",
";X c #F9CC73",
":X c #F6CD78",
">X c #ECD478",
",X c #FBDC72",
"<X c #F4DC7C",
"1X c #F9D779",
"2X c #FDE464",
"3X c #FDE26C",
"4X c #FEEA68",
"5X c #FEE572",
"6X c #FDEC7B",
"7X c #FBE37B",
"8X c #FEF07D",
"9X c #EFDC81",
"0X c #F7DB84",
"qX c #FDEB82",
"wX c #FDE88C",
"eX c #FEF284",
"rX c #FBE798",
"tX c #FEF494",
"yX c #FFF79A",
"uX c #FEF89A",
"iX c #FEEFA5",
"pX c #FEF6A9",
"aX c #FEF9A7",
"sX c #FEFAB4",
/* pixels */
"                                                                                                                                ",
"                                                          N.M.C.N.    R.q.                                                      ",
"                                                        G.0.9.9.5.    t.>.o.                                                    ",
"                                                    v.$X{.E.0.9.9.N.  2.*._                                                     ",
"                                                    <XtX5X!.0.0.9.K.  l.O.H                                                     ",
"                                                  0XsXpX4XW.0.9.9.                                                              ",
"                                                >XpXsX6X(.W.F.9.D.                                                              ",
"                                              @X6XpXeXoX!.E.F.F.D.    h.5.5.4.                                                  ",
"                                              =XeXeXoX(.!.F.F.F.N.    C.7.3.*.4.                                                ",
"                                            @X&X4XoX X!.Q.H.F.F.    K.9.0.8.*.*.m.                                              ",
"                                            $XoXXX X].!.Q.Q.Q.V.    M.F.%XF.7.*.*.                                              ",
"                                          -X&X2X X}.].!.`.!.G.d.    C._.qX!.:.*.&.1.                                            ",
"                                          =X&X&X&X}.}.`.!.Q.j.      M._.iX].>.*.*.*.O.                                          ",
"                                          ,X&X&X}.}.].].`.V.        L.Q.iX*Xr.*.&.&.@.                                          ",
"                                        >X5X*X&X%X}.{.`.n.&           J.rX,Xr.*.*.&.&.O.                                        ",
"                                        <X5X&X&X&X}.[.h.&             G.,X1Xr.:.&.*.$.@.l.                                      ",
"                                      9X3X$X'.'.[.x.d.                M.Q.*Xt.:.*.&.$.$.&.+.                                    ",
"                            -X>X>X<X7X3Xb.g.g.g.s.                      F.`.t.:.*.&.&.$.] ] [ )                                 ",
"                    -X9XrXrXwX6X5X5X5XU.s.    c.I.R.R.                  C.9.8.8.*.$.$.$.$.] ] V ] ` ) ..                        ",
"                ).3XqXuXaXtX8X3X3X3X@Xg.  T.[.H.F.0.6.,.                  3.>.7.*.&.$.$.$.] Z V V V N V ` { }                   ",
"            U._.{.XXoX2X2X2X&X&X&X'.x.  U.Q.D.l.h.f.                      Z.3.:.*.&.$.$.$.V V V V V V V N N M m J               ",
"            I.Q.!.!./.{.}.}.}.%X'.x.    B.V.                                5.*.*.$.$.$.$.V V V V V V V N N N M b d             ",
"            v.Y.Q.`.!.].].].'.I.g.                                            m.&.*.$.$.$.V V V V N V N N M M b R q             ",
"    B.M.A.L.    U.P.P.P.B.z.g.s.                                                +.[ $.$.$.V ] V V V V N N N M b < ;     f W h   ",
"  M.9.t.y.E.G.c.                                                                    I _ ( ' M B N N N M M b v , - O     W Q f   ",
"  6.8.y.p.i.y.H.U.                                                                          G t n n , , : ; - 1 o       f W q   ",
"n.7.8. X+X^.~.W.H.P.                                                                                            d         y #   ",
"h.2.7.3XtX4X^.p.E.Q.K.                                                                                    I ~ / E E Q d         ",
"  5.7.{.pXuX+Xp.y.E.D.                                                                                  K ` / / / / R < 4       ",
"  ,.3.8.7XsXeX.Xp.y.0.n.                                                                                / M ` / E R R < 4       ",
"  l.3.3.E.wXuXOXp.i.t.5.d.                                                                            ) ` ` 1.G.` R R k 3       ",
"    4.3.7.!.qX5X^.u.t.F.Y                                                                           K !   ) ;X1X[ R R : .       ",
"    l.3.*.:.!.&X~.u.t.0.X.                                                                          |     l.rX#X' R j = X       ",
"      <.*.*.:.t.y.u.r.8.4.a                                                                         |     B.1X7.E R ; .         ",
"        1.*.*.*.>.r.8.8.2.H                                                                       I P     M.Q.' E w * X         ",
"          4.*.*.*.7.7.7.*.G                                                                       }     K %.#.( v = X           ",
"            1.*.*.*.*.:.3._                                                                       }     } ] ' R : +             ",
"              1.&.*.*.*.3.) 9                                                                     ) }   _ ' E > +               ",
"                4.&.&.*.*.&.G                                                                     ~ ` / ` / j 5                 ",
"                  <.$.&.&.$.#.+.+.                                                                 .E m b T 6                   ",
"                    O.&.$.&.$.&.&.1.                                                                ! ~ W a                     ",
"                      X.$.$.&.$.&.$.1.                                                                                          ",
"                        %.$.$.$.$.$.[                                                                                           ",
"                        [ $.Z $.$.$.$.G                                                         P ~ ~ f                         ",
"                      ! S ;.-.Z ] $.' G                                                       L W E E W                         ",
"                      <.a.e.w.S V V (                                                         f.  W R Q a                       ",
"                      J.OXe.w.Z V V ^                                                       f.    ! E Q s                       ",
"                      ;X8Xe.F Z ] B G                                                             ~ E z s                       ",
"                    ..,X4Xw.S V V b   } ' )                                               c     g _ E z s                       ",
"                    +.}.i.F V V B G   ' V '                                               c     f { ~ l s                       ",
"                    ..0.F Z V B n % _ V N b                                             f        .1.R k i                       ",
"                    ..C V B V b 0   ! b v 9     K ) { ' ' ` ` ` ` ! P                    .      +.4.W q 6                       ",
"                    K M N M b :       5   J _ ' Z Z C C B B M M M M / ~               c f     h C.,.j e 6                       ",
"                      ^ b n :         K ) ' C S D D S C B M M m / ` m / E J           f l     l.#XO.k e 2                       ",
"                        - 5       K ~ @.Q.Q.>.F D S C B B M / m / m E E / R P         l l k l.T.;X} e 7 #                       ",
"                                ! [ Y.wXwX].;.F #.C B ` ` E m / E E / E R R Q g       l z m.T.rXB.l e u #                       ",
"                    P         ~ @.#XiXrX].>.S #.#.M ` / E E v v < v R R R R R l       l ! B.#XP.! e 7 6 @                       ",
"                    ~ f.    ~ [ Y.wX0XQ.=.A #.' M m E / E , 4 % 2 4 j Q Q Q z z f     l ~ [ o.) k p 7 2 $                       ",
"                    P k.  } / @.G.G.2.#.#.' ( b b R R < - O         3 q z z l z r     k l W W r p p u 1                         ",
"                          R R { ' ( ( M E E E E R Q 0 3               O 7 j j k r     e k k e p p i 2 +                         ",
"                        h E R R R E E R R R R Q w 3 #                     y r e h     s e 7 p p u u 1 $                         ",
"                          W Q Q R R Q Q Q j q 5                               y       x p p i u u 1 @                           ",
"                          a r r l r r s a                                               x y u 2 1 @                             ",
"                                                                                                                                "
};
