/* XPM */
static char *vecteezy_star_shape_bubble_explosion_sprite_sheet_16962014_removebg_ezgif_com_crop__6__resized[] = {
/* columns rows colors chars-per-pixel */
"64 64 219 2 ",
"   c None",
".  c #9E412D",
"X  c #B04A2C",
"o  c #AD5527",
"O  c #B45625",
"+  c #B95B26",
"@  c #A94B32",
"#  c #B45632",
"$  c #BD6324",
"%  c #BC6239",
"&  c #AF743D",
"*  c #CA6F1F",
"=  c #D26D1D",
"-  c #D9731E",
";  c #D9741C",
":  c #C2572B",
">  c #CC5F2D",
",  c #CD5D32",
"<  c #C55A30",
"1  c #C56625",
"2  c #C46A2D",
"3  c #CB6924",
"4  c #D1642F",
"5  c #DA6D2E",
"6  c #D26D27",
"7  c #CD7326",
"8  c #CD772B",
"9  c #D27425",
"0  c #DC7523",
"q  c #DD7A22",
"w  c #DD732C",
"e  c #DC7A2D",
"r  c #D5752A",
"t  c #C76836",
"y  c #D46632",
"u  c #D66A31",
"i  c #D96C31",
"p  c #D46C38",
"a  c #CD7637",
"s  c #CA723D",
"d  c #CD7B36",
"f  c #D37431",
"g  c #D57B35",
"h  c #DB7E35",
"j  c #D47D3B",
"k  c #D97736",
"l  c #E47E22",
"z  c #E0772A",
"x  c #E27C2B",
"c  c #AD7242",
"v  c #B37744",
"b  c #CA7541",
"n  c #BE853F",
"m  c #DE811C",
"M  c #E5821D",
"N  c #EC8D1D",
"B  c #F18D1D",
"V  c #EC911F",
"C  c #F3931C",
"Z  c #FA971B",
"A  c #F49A1E",
"S  c #FA9C1D",
"D  c #F4A21F",
"F  c #FAA21C",
"G  c #FBAD1E",
"H  c #F6AD1F",
"J  c #FBB21B",
"K  c #D1802C",
"L  c #DC8A2E",
"P  c #CF883B",
"I  c #DB8335",
"U  c #DE8D33",
"Y  c #D58837",
"T  c #C8903C",
"R  c #DF983A",
"E  c #E58225",
"W  c #EB8424",
"Q  c #ED8B23",
"!  c #E5842B",
"~  c #E98429",
"^  c #E58A2B",
"/  c #EA8D2B",
"(  c #E58F27",
")  c #F08D22",
"_  c #EF9124",
"`  c #EE9C27",
"'  c #EA942B",
"]  c #EC9A2D",
"[  c #E7942C",
"{  c #F39422",
"}  c #F49B24",
"|  c #FA9D22",
" . c #F29C2A",
".. c #E48B32",
"X. c #E29333",
"o. c #EC9D32",
"O. c #E69A3E",
"+. c #E89636",
"@. c #F09C32",
"#. c #EEA22C",
"$. c #F5A224",
"%. c #FBA224",
"&. c #FAAA23",
"*. c #F4A12C",
"=. c #FAA62B",
"-. c #FBAB2B",
";. c #F5AB24",
":. c #FAB32D",
">. c #FCBC2E",
",. c #F6B827",
"<. c #EEA235",
"1. c #EDA23B",
"2. c #E3A13E",
"3. c #F0A235",
"4. c #F3AB35",
"5. c #FAAC32",
"6. c #F2A83D",
"7. c #FAAF39",
"8. c #F5B432",
"9. c #FAB232",
"0. c #FABB3C",
"q. c #F5B735",
"w. c #FDC722",
"e. c #FCC12E",
"r. c #FED523",
"t. c #FDC335",
"y. c #FBCB3D",
"u. c #FBC33E",
"i. c #FCD43B",
"p. c #FCD538",
"a. c #BB8047",
"s. c #CB8B44",
"d. c #D48B45",
"f. c #CC9346",
"g. c #CB974C",
"h. c #DD9644",
"j. c #D89B44",
"k. c #DE9B51",
"l. c #E49D43",
"z. c #E09145",
"x. c #E09C59",
"c. c #DEA448",
"v. c #D9A653",
"b. c #E5A344",
"n. c #ECA542",
"m. c #E1A44C",
"M. c #E9A64B",
"N. c #E3AD4C",
"B. c #E9AB48",
"V. c #F1AD43",
"C. c #ECB249",
"Z. c #EFB64A",
"A. c #F6B946",
"S. c #FBBD44",
"D. c #F2BA4C",
"F. c #F4B649",
"G. c #E3AD55",
"H. c #E8A855",
"J. c #ECB654",
"K. c #E4B25B",
"L. c #E8B75F",
"P. c #F5BE51",
"I. c #D8AD6D",
"U. c #DFBA6E",
"Y. c #E9BC61",
"T. c #E2B768",
"R. c #F0BE66",
"E. c #E8AB63",
"W. c #FBC543",
"Q. c #FCCB4B",
"!. c #F9C64A",
"~. c #FDD34C",
"^. c #FDDC4C",
"/. c #FDDA42",
"(. c #EFC859",
"). c #FDCD53",
"_. c #F3C55B",
"`. c #F6CE5E",
"'. c #FBCC5A",
"]. c #F3C654",
"[. c #FDDB56",
"{. c #FCD35B",
"}. c #FCDA5B",
"|. c #FDD353",
" X c #FCE04C",
".X c #FEE25C",
"XX c #FDE558",
"oX c #E7C36C",
"OX c #F8CC63",
"+X c #F6C76B",
"@X c #FDDC62",
"#X c #F8D76D",
"$X c #FCDD6C",
"%X c #F8D668",
"&X c #E4CC7E",
"*X c #E8C673",
"=X c #F8CB71",
"-X c #EDD177",
";X c #F5DA73",
":X c #F7D87A",
">X c #FEE664",
",X c #FDE768",
"<X c #FCE576",
"1X c #FDEC74",
"2X c #FEEB7A",
"3X c #FCF07D",
"4X c #EECA8A",
"5X c #F6CE86",
"6X c #EED383",
"7X c #FBDA85",
"8X c #FDEB85",
"9X c #FAE78A",
"0X c #FEF48C",
"qX c #FBE997",
"wX c #FEF795",
"eX c #FEEEA3",
"rX c #FBF3A2",
"tX c #FEF9AB",
"yX c #FEF7AE",
/* pixels */
"                                                                                                                                ",
"                                                                      4XZ.Y                                                     ",
"                                                        J.S.C.        R.7...                                                    ",
"                                                    U.'.Q.u.0.H.      m.<.d.                                                    ",
"                                                  U.:X2X[.u.0.m.                                                                ",
"                                                  9XyX2X~.W.A.                                                                  ",
"                                                6XtXwX.XW.S.F.              l.h.                                                ",
"                                              *XqXtX<X~.W.W.m.            m.9.5.h.                                              ",
"                                              ;XwX2X[.).W.D.              C.Q.>.<.                                              ",
"                                            *X<X1X.X|.!.!.c.              J.2Xy.-.O.                                            ",
"                                            #X.XXX[.).Q.Z.                L.9X^.-.3.                                            ",
"                                          *X>X.X}.).).P.f.                G.8X[.:.$.O.                                          ",
"                                          #X}.@X{.).].f.                    #XXX,.&.@.                                          ",
"                                        -X@X@X{.{.P.f.                      ].^.e.&.$.O.                                        ",
"                                      4X#X@X@X`.m.T                         B.y.e.&.=.*.                                        ",
"                                      ;X@X`.J.f.c                             8.>.&.%.%. .                                      ",
"                                  &X;X(.c.f.v                                 2.:.&.%.%.%. .X.                                  ",
"                            6X-X;X$X(.T &                                       <.-.%.%.| F | } [ U                             ",
"                  *X:XqXrXrX8X,X@X`.f.&   *XoXY.I.                                o.%.%.| F S S S S { +...                      ",
"                `..X,X1X3X2X,X@X`.c.&   *XT.                                        +. .| S S S Z S S Z { '                     ",
"              T.'.'.{.[.}.`._.N.s.c                                                     L ( V { C Z A C B M 2                   ",
"                  T.K.G.v.g.a.                                                                7 7 = 9 9 * $                     ",
"                                                                                                                          j s   ",
"                                                                                                                        h W h   ",
"                                                                                                                        j ! w   ",
"    C.D.G.                                                                                                                  %   ",
"  C.W.p.y.C.                                                                                                                    ",
"  C.~.XX XW.B.                                                                                                                  ",
"  V.Q.0X,Xp.0.c.                                                                                                  j j b         ",
"  n.q.<XwX Xy.C.                                                                                              k.M.] _ ! e       ",
"    7.W.8X,Xp.0.j.                                                                                          T.:X!. .Q W z       ",
"    6.:.Q.,X/.t.b.                                                                                        E.:XA.*.) W q 3       ",
"    m.5.>.W.i.t.4.                                                                                      j._.q.A Q W l 3 #       ",
"      n.5.9.>.t.q.Y                                                                                     1.:.} Q W l = O         ",
"        1.-.9.9.9.X.                                                                                  Y $. .Q W W = O           ",
"          1.-.5.-.<.                                                                                  ..A { Q W ; O             ",
"            1.5.-.*.d                                                                                 / { Q W q +               ",
"              @.5.=.L                                                                                 Q ) W l 1                 ",
"                l.=.`                                                                                 / Q W 7                   ",
"                  O.3.U                                                                               ^ W e                     ",
"                    O.@.X.                                                                              a                       ",
"                      o.$.o.                                                                                                    ",
"                        $.%.@.                                                                                                  ",
"                         .%.%.o.                                                                                                ",
"                      X.| | | { K                                                                                               ",
"                      ] G F S | K                                                                   g j                         ",
"                      ;.w.G S A 8                                                                 ..~ ~ s                       ",
"                    c.p.r.J S { 7                                                               z.o.Q x g                       ",
"                    K.>Xr.J S N                                                               d.R.V.~ x f                       ",
"                    Y.<Xw.F Z m                                                               E.7X6.^ x f                       ",
"                    J.|.J S C 7   U } ^                                                     d.5X=X` W z f                       ",
"                    l.9.F Z M     { Z (                                                     x.7XV.[ ~ z u                       ",
"                      } A N 7     ' ^                                                       H._.#.' x w 6                       ",
"                      ^ N 9                                                               j n.4.` ^ w w t                       ",
"                                        X.]  .}  .} { _ / / ..h I I I                     h o.@./ x w w t                       ",
"                                  d.M.D.A.:.H H H | { B B ) ) Q Q ) Q ! j                 h ' ' ! e i 5 #                       ",
"                  b             m.=XqX9XOX>.H $.D { { N Q ) N W W W Q W ~ g               h / ! z w 5 4 #                       ",
"                  / h         O.=XeXqXOX:.;.D } { ) Q W l ; = = ; l W W E x j             z x x w i i , @                       ",
"                  I a       U n.+XOXA.;.D A { Q Q W W - = + o o o 1 6 x W x z             w w w 5 u y +                         ",
"                            /  .#.#.A A _ _ Q Q l 0 1 O               t k x z b           p i i u u y X                         ",
"                            ~ Q Q V _ Q W W E r 1                           s             p u i u y : .                         ",
"                            h ~ W W W ~ e r 2                                             t i p y , X                           ",
"                                g g f t                                                     t , < @                             ",
"                                                                                                                                "
};
