/* XPM */
static char *d8363109deeb4a5cd156d4ccf6a4d7117P430T5puvMiEM6Q[] = {
/* columns rows colors chars-per-pixel */
"32 32 184 2 ",
"   c #020101",
".  c #090201",
"X  c #000902",
"o  c #030408",
"O  c #060C08",
"+  c #0B0C0E",
"@  c #1B0907",
"#  c #170F0C",
"$  c #150C05",
"%  c #060A11",
"&  c #0B0C10",
"*  c #161614",
"=  c #1D1614",
"-  c #14151B",
";  c #1B1619",
":  c #141B1D",
">  c #1C1B1C",
",  c #1D1C17",
"<  c #220A06",
"1  c #261305",
"2  c #21120B",
"3  c #311E0F",
"4  c #231615",
"5  c #291715",
"6  c #241915",
"7  c #2A1B16",
"8  c #21161A",
"9  c #241B1B",
"0  c #2B1D1C",
"q  c #311D14",
"w  c #311E1C",
"e  c #2C221C",
"r  c #22251E",
"t  c #3F2816",
"y  c #34221C",
"u  c #3C2219",
"i  c #151722",
"p  c #141D23",
"a  c #1B1D23",
"s  c #1E1F29",
"d  c #201525",
"f  c #221E22",
"g  c #291D22",
"h  c #271D28",
"j  c #281D2B",
"k  c #331F21",
"l  c #172027",
"z  c #1D2124",
"x  c #1C2229",
"c  c #232224",
"v  c #2C2322",
"b  c #2C2823",
"n  c #222328",
"m  c #2D262A",
"M  c #2D2A2B",
"N  c #332524",
"B  c #392523",
"V  c #322826",
"C  c #3C2A25",
"Z  c #33262A",
"A  c #352A2A",
"S  c #3B2C2B",
"D  c #3C312E",
"F  c #2C2A35",
"G  c #362D30",
"H  c #3A2F34",
"J  c #312A3A",
"K  c #333134",
"L  c #3C3332",
"P  c #3C3837",
"I  c #3E3739",
"U  c #3C393F",
"Y  c #44210E",
"T  c #402810",
"R  c #43291B",
"E  c #4A2F1A",
"W  c #43271B",
"Q  c #4B301D",
"!  c #513C1D",
"~  c #422B24",
"^  c #412D2C",
"/  c #482F2A",
"(  c #4B2F24",
")  c #463025",
"_  c #4F3D27",
"`  c #45322D",
"'  c #4A342C",
"]  c #533625",
"[  c #573728",
"{  c #523B2E",
"}  c #432F31",
"|  c #433433",
" . c #4A3434",
".. c #453A36",
"X. c #4A3936",
"o. c #443639",
"O. c #4B3739",
"+. c #443A3A",
"@. c #4B3B3B",
"#. c #533A33",
"$. c #5A3E33",
"%. c #533D3C",
"&. c #574129",
"*. c #5B402F",
"=. c #4D423E",
"-. c #52423E",
";. c #5A433C",
":. c #5A483C",
">. c #614432",
",. c #6D533A",
"<. c #62513D",
"1. c #74553D",
"2. c #71583A",
"3. c #3F3A43",
"4. c #453B42",
"5. c #4C3E42",
"6. c #4C4143",
"7. c #4D484C",
"8. c #534342",
"9. c #5A4543",
"0. c #534946",
"q. c #5C4946",
"w. c #514748",
"e. c #534949",
"r. c #5C4B4B",
"t. c #5B504C",
"y. c #5C4C51",
"u. c #5E5158",
"i. c #5E5453",
"p. c #664D44",
"a. c #614B4A",
"s. c #6B4D43",
"d. c #685044",
"f. c #63524F",
"g. c #6C534B",
"h. c #6E5A4A",
"j. c #715547",
"k. c #775C47",
"l. c #7A5C45",
"z. c #7A5D4D",
"x. c #635452",
"c. c #6A5250",
"v. c #6F5C57",
"b. c #6F5659",
"n. c #635A5D",
"m. c #766352",
"M. c #6B5C63",
"N. c #765D60",
"B. c #7C6460",
"V. c #7D7777",
"C. c #8F6F46",
"Z. c #876F4D",
"A. c #826C54",
"S. c #87695E",
"D. c #826351",
"F. c #8E725A",
"G. c #94725C",
"H. c #927354",
"J. c #876D62",
"K. c #8E7368",
"L. c #997E6B",
"P. c #8A7878",
"I. c #837374",
"U. c #A4825D",
"Y. c #B2915E",
"T. c #9C8267",
"R. c #9F806C",
"E. c #8A817C",
"W. c #AC8F6F",
"Q. c #B99467",
"!. c #B7986C",
"~. c #B49671",
"^. c #BD9C71",
"/. c #C7A47D",
"(. c #D0AC78",
"). c #7E7D82",
"_. c #88878F",
"`. c #DEBC8C",
"'. c #CFAB93",
"]. c #E5C29E",
"[. c #F5D29C",
"{. c #F3CFAD",
"}. c #FFDEAA",
"|. c #FFDFB2",
/* pixels */
". . .               . . . .     . . .   . .       .         . . ",
".   .   o                 .   . .     .     .             .     ",
"                        .   .     .         X X     .         X ",
"  O     . . . . . . . .   . . . . . .                 . .       ",
"r , 9 S ~ #.S.D.F.2.! ,.A.h.d.;.q.^ S S V A | | 4 A V N 8 v A S ",
"* , v 0 q ( Y G././.^.C.H.,.[ $.~ %.a.| ^ k %.| @.@.L v N x.9.%.",
"- a K K D :.T ~.|.}.[.`.~.1.] p.%.X. . .a.^  .@.o.| D 0 0 9. . .",
"i a i c +.C _ Z.!.Y.(.Q.U.l.$.' C B C ^ ~ B N B V S S C w V N N ",
"J F - m w.=.h.A.W.].].{.'.G.s./ 9.C 9.-.8.=.D ....q.f.x.@.| V v ",
"d j h 8 A 0 q 1 t L.E Q j.#.~ C ` w S D D e 4 S N N S C 0 0 4 b ",
"3.U +.A | e 7 ....E.9 . $ e D ` ` %.X.N 5 -.f.v.g.q.8.D S 8.@.0.",
"> K @.L D 0 9 e.7.).a & + * b =.r.q.8.S @ w %.c.#.^ N 0 N @.B 0 ",
"> ; 8 8 Z Z H 4.3._.s % % % : > b v S ^  .a.9.X.S e N V ^ V S @.",
"P A ; g M.y.5.u.n.V.f   + z F n ; 9 @.r.N.b.8.-.=.N S  .x.8.0.0.",
"b = 8 g Z g w y q m.<.1 . # ; f ; 4 v A S S o.S | B B B V | | S ",
"0.0.+.6.5.@.w ~ ,.T.F.&.3 2 S 4.r.r.0.| = A x.@.@.9.r.a.N 8.D L ",
"+.| A | N N < u ] k.F.k.R 1 ^ @.r.e.0.L = 9 L A | | ^ S 0 | N D ",
"v N A 0 @. .9.p.z.R.1.>.g.) w 7 0 4 8 Z G v v L 6.V N N A S 6.+.",
"L =.e.@.I.P.B.J.J.L.z.*.K.p.%.@.A 9 9 Z L 5.5.| e.L ..S @.| 5.o.",
"v A 0 v S S C u R R R R ~ C ^ 0 V A N v v g 0 A S N C 5 0 S v 0 ",
"8.0.e.S S w B ;.;.{ { ' y 0 i.G | | @.e.+.Z v L }  .a.%.w @.| A ",
"v b A N 0 4  . .~ #.` ' 5 0 L A S 0 v L v A A N k S %.X.0 S S N ",
"> > * ; v S L -.;.9.` B @.@.o.@.o.| 0 V S S Z @.o.N N 0 V | | } ",
"z z - - c 9 S =.x.v.C ^ -. .o.o.@.@.S | o.5.| | y.N | S S @.O.o.",
"- - - a c > 9 D A S  .q.o.0 A N N C V 0 9 m A N S } | ` S N N b ",
"s a x K U M A 6.0.t.8.X.N v @.+.8.8.o.v ; c I 6.w.r.r.-.V 4 b L ",
"p p : p l * * c L ..S N 5 4 S D b b v 9 8 g Z S S V v A v 9 v N ",
"l x p : : : > c P S N | 8.+.o.D +.L A m A L I I m b b D L S L L ",
"              .   . . . .       . .               . . . .       ",
"                . .                                 .           ",
"            .                                       . .         ",
".     .                                                         "
};
