/* XPM */
static char *_a4d5b6761214d91a41634d19a500afdBQys7Rdxndf2JaS4[] = {
/* columns rows colors chars-per-pixel */
"32 32 234 2 ",
"   c #010204",
".  c #020409",
"X  c #0C0B0D",
"o  c #090908",
"O  c #140A06",
"+  c #151206",
"@  c #0C0C13",
"#  c #090B15",
"$  c #130E13",
"%  c #160F13",
"&  c #091116",
"*  c #09151C",
"=  c #131415",
"-  c #1B1414",
";  c #1B1B16",
":  c #12141B",
">  c #1C141B",
",  c #1C1B1B",
"<  c #171B1E",
"1  c #0E100D",
"2  c #231204",
"3  c #261709",
"4  c #241C1D",
"5  c #251715",
"6  c #351E19",
"7  c #2C130A",
"8  c #1E201D",
"9  c #28220C",
"0  c #2F221A",
"q  c #392619",
"w  c #131B24",
"e  c #1C1D23",
"r  c #1B1F2A",
"t  c #151722",
"y  c #091722",
"u  c #221F26",
"i  c #1D2125",
"p  c #1D242E",
"a  c #242125",
"s  c #2A2424",
"d  c #22242D",
"f  c #2C292B",
"g  c #2A2529",
"h  c #3B2B23",
"j  c #342A2B",
"k  c #3C2D2A",
"l  c #352723",
"z  c #3C312D",
"x  c #3F3222",
"c  c #272A34",
"v  c #383435",
"b  c #2E323B",
"n  c #45281B",
"m  c #552815",
"M  c #46321A",
"N  c #6E2A16",
"B  c #472B25",
"V  c #443023",
"C  c #4A372A",
"Z  c #513425",
"A  c #563A2B",
"S  c #473935",
"D  c #5A3E32",
"F  c #523B34",
"G  c #683722",
"H  c #7A3423",
"J  c #584439",
"K  c #504E32",
"L  c #674B37",
"P  c #6B4E39",
"I  c #3F4342",
"U  c #5D4845",
"Y  c #575758",
"T  c #6C5547",
"R  c #735243",
"E  c #7B5C4A",
"W  c #70554C",
"Q  c #6B5952",
"!  c #655857",
"~  c #735D54",
"^  c #765F59",
"/  c #664B43",
"(  c #74634E",
")  c #7C6353",
"_  c #766259",
"`  c #6A6954",
"'  c #5B5E62",
"]  c #5C6062",
"[  c #63656A",
"{  c #696864",
"}  c #786965",
"|  c #7C7E6F",
" . c #7E7972",
".. c #796F70",
"X. c #873C27",
"o. c #843E31",
"O. c #923C2B",
"+. c #8A432B",
"@. c #93412F",
"#. c #8C4D35",
"$. c #874935",
"%. c #9C4C39",
"&. c #895139",
"*. c #97573C",
"=. c #855B49",
"-. c #9E5C41",
";. c #A25544",
":. c #9A6449",
">. c #896959",
",. c #9A6957",
"<. c #8C735C",
"1. c #8A6E57",
"2. c #A16649",
"3. c #A8775B",
"4. c #856C64",
"5. c #866B63",
"6. c #8B7567",
"7. c #94796C",
"8. c #977A68",
"9. c #887B75",
"0. c #957E74",
"q. c #A27B68",
"w. c #778468",
"e. c #968B5D",
"r. c #988B5F",
"t. c #9B8C63",
"y. c #988A68",
"u. c #9B916A",
"i. c #87877A",
"p. c #9C8473",
"a. c #9B837B",
"s. c #958376",
"d. c #96967A",
"f. c #8F8A62",
"g. c #A1826B",
"h. c #A98569",
"j. c #A38371",
"k. c #A3897C",
"l. c #A88877",
"z. c #B48C75",
"x. c #B48677",
"c. c #A8987D",
"v. c #B6967C",
"b. c #B78465",
"n. c #C99677",
"m. c #C1886E",
"M. c #CDA37F",
"N. c #7E9793",
"B. c #8C8985",
"V. c #948684",
"C. c #998C88",
"Z. c #899489",
"A. c #989583",
"S. c #969595",
"D. c #A58D85",
"F. c #A18E89",
"G. c #AC8E81",
"H. c #AD9383",
"J. c #A59989",
"K. c #B29383",
"L. c #B1968A",
"P. c #B99B8A",
"I. c #A89894",
"U. c #B59C93",
"Y. c #B69E98",
"T. c #BAA18D",
"R. c #A9A698",
"E. c #BEA59A",
"W. c #B9A596",
"Q. c #BEB395",
"!. c #969FA6",
"~. c #BBB6A8",
"^. c #BAB8B3",
"/. c #B0A6A9",
"(. c #D28F83",
"). c #CB9D86",
"_. c #D0988C",
"`. c #C6A68A",
"'. c #D5A988",
"]. c #CCB48C",
"[. c #D3B38F",
"{. c #C1A494",
"}. c #C5AA9B",
"|. c #DAAB96",
" X c #CCBC95",
".X c #C9B59A",
"XX c #D3BD92",
"oX c #DBBC94",
"OX c #D5B595",
"+X c #C3ABA4",
"@X c #C6B5A5",
"#X c #C5B9B4",
"$X c #D6B8A9",
"%X c #CCC498",
"&X c #D4CA9D",
"*X c #D4C699",
"=X c #D0D09E",
"-X c #CDC6A5",
";X c #DBCDA2",
":X c #D5CAA5",
">X c #D9D0A6",
",X c #C5C4BD",
"<X c #DBD5B4",
"1X c #D2CFB5",
"2X c #E5D9AE",
"3X c #EACAB3",
"4X c #ECDEB3",
"5X c #E4D9B6",
"6X c #E9E3B8",
"7X c #F1E2B9",
"8X c #CCC7C2",
"9X c #D4CDC2",
"0X c #D4D2CB",
"qX c #D8D3CD",
"wX c #D9DBD0",
"eX c #E1DDCA",
"rX c #E4DDD2",
"tX c #DBE5D2",
"yX c #EBE8CB",
"uX c #ECE6D3",
"iX c #EBEAD6",
"pX c #E8EAD9",
"aX c #F2EAD5",
"sX c #F6ECD6",
"dX c #F6F2DA",
"fX c #DDECE5",
"gX c #ECEDE0",
"hX c #F5F3E5",
"jX c #F5F5EA",
"kX c #FBFCED",
"lX c #FCF7E5",
"zX c #E8FBF4",
"xX c #F7FAF8",
"cX c #EDF4E8",
/* pixels */
"Y R.B.A.J.d.d.u.f.t.t.r.t.t.t.t.e.e.r.r.t.u.u.y.c.J.A.S.S.S./.[ ",
"B.jXkXkXkXdXyX6X6X6X4X4X7X7X4X2X2X6X2X2X2X2X2X<X5XaXlXxXxXxXxX!.",
"B.jXgXuXiXyX5X>X:X:X&X&X;X;X;X&X%X=X=X;X;X;X;X:X5XyXiXpXfXfXzXN.",
"B.kXhXiXdXyX<X-X%X&X;X&X&X&X;X;X*X&X&X*X*X*X%X X X<XyXpXpXcXzXZ.",
"i.jXhXdXaX<X:X<X X%X*X*XXXXXXXXXoXoXoXoXXXXX%X%X-X<XyXdXiXgXjXi.",
"C.jXpXuXiX-XQ.:X X X].].XXoXOX'.'.'.'.'.M.`.].]. X X5XsXuXuXlXA.",
"i.hXpXdXlX1Xc.v.].[.[.'.'.'.M.n.n.n.m.3.2.2.2.2.:.,.[.sXdXaXlXA.",
"i.hXiXuXuX@Xc.T.h.v.n.b.2.*.*.-.-.*.%.+.X.X.+.$.#.&.z.3X3X$X5X6.",
"| hXwXaXaX.X1.g.3.=.&.#.+.X.@.X.O.%.@.N %.#.$.:.'.h.g.v.g.{.P.=.",
"i.uXeXeXW.8.L m G G N N +.;.@.;.%.X.;.H &.n.).[.`.`.g.<.8.K.j.J ",
"K W.R.@X.Xj.P A m m $.o.o.;.o.H m.).).'.).|.|.z.P.v.<.( P K K K ",
"Q W.s.p.T.T.l.l.q.P :.(._.(.(.|.).OX1.z.P.q.l.8.E M 2 K ~.1XeXw.",
"( W.T.H.8.p.l.E R >.=.,._.|._.x.v.g.E 8.p.) x 9 9 + + ` iXiXeXd.",
") }.{.H.>.D J A Z Z Z j.{.8.8.8.>.P Z Z 3 3 q O + 9 + S 1XuX9XA.",
"E }.K.l.K.R n q C q 6 C q q C q Z L Z J V A s.Q 2 h h l V.rXrX9.",
">.G.E A ) a.0.C J V 2 O V J C V L.P.{.k.K.G.6.W Q O J I.#X9X0X .",
"~ 0.F 6 h k } h 5 0 J V U.E.T T U.}.{.P.{.K.>.D 6 S ! 8X0X^.0X| ",
"Q Q l l j j  .! S 5 F.#XE.E.{.k.U.+X.X{.P.l.R n F V.~.0X^.,XwX| ",
"k k k S z s ..B.I.} F.#X+XU.Y.L.E.U.{.P.P.8.D B I.#X8X8X,X0X8X{ ",
"S j O % a 4 a , { V.C.E.+Xa.4.7.a.s.{.}.K.) n C #X#X,X^.S.S.B.{ ",
"} ! %   a f = X , O l 9.E.@XY.U J ~ L.L.>.A 2 z B.S.S.[ v v f 4 ",
"Y Y o   , i : g @ g X k V.F.U.+XY.E.E.4.F q O + ; < p w e c e , ",
"[ Y     : i e @ t @ % 4 k S } 4.4.5./ h 6 0 5 - = & w p c r $ u ",
"' Y : # . : b t # e > % U S k 7 2 6 B F F 0 - 1 * * * w c d @ > ",
"[ ' . . # t w r # e $ 4 9.} k 5 q B B ~ 4.0 ;   * * y w c t . > ",
"[ ]     . # r p : = $ - C.F.^ U B F 5.D.9.0 o i & & * w d t   > ",
"[ ]   # .   i d g X X O V.Y.a.a.^ >.L.D._ S o = : * w p c t . , ",
"I v   # .   & e u   4 z V.F.} D.U.H.L.0.~ Q 5 X @ & w p r #   > ",
"8 o   . . # . i g o s } F.a.J 7.H.k.7.p.6.~ l - % : r p t .   , ",
";   o     X   , j - z C.I.a.B W k.H.6.8.k.4.F 5 > : d d :     , ",
";   o     o   X > 4 S C.D.6.n q p.H.>.R 7.4.U 6 4 @ t e $ .   - ",
"s - ; , , ; , , f k S U U / Z n L R A n R D 6 l j > u c u , - s "
};
